<?xml version="1.0" standalone="no"?>
<!DOCTYPE svg PUBLIC "-//W3C//DTD SVG 20010904//EN"
 "http://www.w3.org/TR/2001/REC-SVG-20010904/DTD/svg10.dtd">
<svg version="1.0" xmlns="http://www.w3.org/2000/svg"
 width="1024.000000pt" height="1024.000000pt" viewBox="0 0 1024.000000 1024.000000"
 preserveAspectRatio="xMidYMid meet">
<metadata>
Created by potrace 1.14, written by Peter Selinger 2001-2017
</metadata>
<g transform="translate(0.000000,1024.000000) scale(0.100000,-0.100000)"
fill="#000000" stroke="none">
<path d="M0 5120 l0 -5120 5120 0 5120 0 0 5120 0 5120 -5120 0 -5120 0 0
-5120z m4948 4417 c2 -12 -3 -17 -17 -17 -12 0 -21 6 -21 13 0 31 32 34 38 4z
m552 -69 c67 -31 107 -69 145 -140 25 -45 29 -64 30 -128 0 -62 -5 -85 -28
-132 -72 -146 -238 -208 -379 -140 -52 26 -57 34 -51 79 4 23 13 35 34 43 35
15 38 30 5 30 -28 0 -28 -2 0 160 11 61 21 88 35 98 12 8 19 23 17 35 -3 20
-9 22 -56 21 -57 -2 -82 -16 -82 -45 0 -22 11 -24 28 -7 6 6 13 10 16 7 6 -7
-58 -339 -66 -339 -15 0 -58 88 -67 135 -11 59 2 152 29 204 27 52 89 109 146
131 69 28 170 23 244 -12z m-722 -13 c22 -49 -20 -89 -64 -60 -30 20 -30 39 0
70 28 28 48 25 64 -10z m-180 13 c7 -7 12 -24 12 -40 0 -35 -28 -52 -64 -38
-21 8 -26 16 -26 43 0 19 3 37 7 40 11 11 58 8 71 -5z m-233 -48 c21 -5 24 -8
10 -9 -20 -2 -20 -2 -1 -16 15 -11 16 -15 5 -19 -8 -2 -21 -7 -29 -9 -8 -3 -3
-6 13 -6 15 -1 27 -5 27 -11 0 -15 -41 -21 -75 -12 -23 6 -31 16 -36 42 -4 19
-5 38 -3 42 6 10 48 9 89 -2z m1423 -17 c4 -25 -22 -37 -38 -17 -10 11 -10 17
0 29 17 20 34 14 38 -12z m-1650 -30 c42 -33 345 -293 436 -376 l31 -27 -50
19 c-222 85 -479 202 -511 232 -47 44 -55 129 -17 171 25 27 56 22 111 -19z
m775 21 c3 -3 0 -15 -6 -25 -15 -25 3 -38 53 -40 40 -1 37 -2 -44 -20 -54 -12
-60 -11 -72 6 -8 10 -14 34 -14 52 0 32 2 33 38 33 21 0 41 -3 45 -6z m-319
-80 c30 -30 9 -84 -33 -84 -43 0 -56 58 -19 84 28 20 33 20 52 0z m170 10 c21
-8 21 -67 1 -84 -20 -17 -62 -5 -70 20 -9 27 2 58 23 63 27 7 29 7 46 1z
m1349 -15 c84 -23 146 -123 132 -214 -10 -73 -107 -206 -131 -182 -12 11 -5
85 10 122 16 39 12 44 -16 18 -14 -12 -18 -31 -18 -80 0 -61 -1 -63 -25 -63
-24 0 -25 2 -25 75 0 57 -3 75 -14 75 -17 0 -26 -31 -26 -97 0 -49 -2 -53 -24
-53 -68 0 -146 108 -147 202 -1 63 9 93 46 136 55 65 143 88 238 61z m-2233
-61 c0 -15 -24 -52 -63 -97 -27 -32 -106 -81 -131 -81 -16 0 -26 -43 -26 -106
l0 -44 155 0 c135 0 155 -2 155 -16 0 -14 -30 -15 -277 -12 l-278 3 -67 32
c-71 33 -142 92 -170 141 -17 28 -17 30 -1 36 9 4 51 10 93 13 136 10 228 -34
297 -142 47 -74 59 -67 67 39 12 170 35 205 151 229 89 19 95 20 95 5z m-251
-24 c3 -16 1 -17 -13 -5 -19 16 -21 34 -3 29 6 -3 14 -13 16 -24z m2815 10 c8
-21 -11 -44 -36 -44 -24 0 -34 26 -18 45 16 20 46 19 54 -1z m-1504 -19 c0
-18 -5 -25 -20 -25 -15 0 -20 7 -20 25 0 18 5 25 20 25 15 0 20 -7 20 -25z
m-1352 -38 c43 -45 48 -131 7 -97 -23 19 -45 65 -45 95 0 31 10 32 38 2z
m1080 -44 c-3 -32 -25 -37 -42 -10 -8 14 -8 20 4 27 28 18 41 11 38 -17z
m2096 -3 c48 -31 85 -90 86 -136 0 -12 10 -25 24 -32 27 -12 38 -52 22 -84
-10 -19 -20 -23 -66 -25 -33 -1 -71 -10 -95 -22 -128 -68 -287 54 -246 189 37
125 168 178 275 110z m-2841 -44 c6 -15 -1 -26 -15 -26 -4 0 -7 4 -5 9 2 9 -3
11 -23 11 -13 0 -9 -32 5 -43 6 -5 4 -7 -5 -4 -20 5 -25 34 -10 52 16 19 46
19 53 1z m144 -2 c8 -20 -8 -48 -30 -52 -19 -4 -39 30 -31 52 8 21 53 21 61 0z
m903 -14 c-12 -22 -40 -27 -40 -7 0 19 10 27 32 27 16 0 17 -3 8 -20z m-745
-75 c0 -13 -8 -21 -23 -23 -26 -4 -48 -42 -39 -66 4 -10 18 -16 37 -16 25 0
30 -4 30 -22 0 -38 -16 -52 -56 -51 -44 1 -51 11 -60 81 -10 81 21 124 86 119
18 -1 25 -8 25 -22z m-1135 -5 c0 -11 -4 -20 -10 -20 -5 0 -10 2 -10 4 0 2 -3
11 -6 20 -4 11 -1 16 10 16 9 0 16 -8 16 -20z m1224 4 c3 -9 6 -51 6 -94 0
-69 -3 -82 -22 -100 -12 -11 -26 -20 -30 -20 -5 0 -8 52 -7 115 1 113 2 115
24 115 13 0 26 -7 29 -16z m516 -32 c0 -12 -22 -28 -67 -51 -91 -45 -174 -110
-229 -182 -37 -49 -51 -60 -68 -55 -11 3 -29 6 -38 6 -27 0 -23 10 33 74 82
96 183 167 291 206 67 24 78 24 78 2z m2218 -44 c-4 -26 -30 -43 -52 -35 -23
9 -22 64 2 70 27 6 54 -12 50 -35z m-3910 0 c-4 -29 -38 -38 -38 -10 0 22 8
32 27 32 9 0 13 -8 11 -22z m3270 -18 c4 -34 -15 -60 -44 -60 -20 0 -44 29
-44 54 0 31 20 47 55 44 26 -3 30 -7 33 -38z m-670 13 c12 -3 22 -9 22 -13 0
-13 -76 -70 -93 -70 -24 0 -31 19 -14 38 8 9 18 27 22 40 5 17 11 21 23 16 10
-3 27 -9 40 -11z m-2696 -20 c36 -34 36 -67 -1 -104 -36 -35 -64 -37 -96 -4
-32 31 -33 80 -3 112 29 30 66 29 100 -4z m2011 3 c25 -7 60 -24 79 -37 l33
-24 -40 -7 c-22 -4 -64 -7 -94 -7 -47 -1 -58 -5 -94 -38 -30 -27 -42 -33 -46
-22 -8 19 -40 21 -65 4 -17 -12 -21 -12 -31 1 -10 14 -14 14 -26 3 -26 -25
-78 -59 -89 -59 -20 0 -10 26 23 59 59 61 96 84 142 88 25 2 55 8 67 14 17 7
8 8 -39 5 -35 -2 -65 0 -68 5 -17 26 171 38 248 15z m2187 -57 c0 -13 -22 -10
-44 6 -16 12 -17 17 -5 31 12 15 15 14 31 -6 10 -12 18 -26 18 -31z m-2544
-50 c-82 -78 -102 -104 -138 -177 -41 -81 -43 -90 -46 -191 -4 -105 6 -155 53
-266 8 -17 7 -18 -7 -8 -8 7 -30 45 -48 84 -57 125 -53 280 12 410 40 81 139
186 203 215 28 13 54 24 59 24 4 0 -35 -41 -88 -91z m1384 65 c0 -12 -9 -14
-42 -12 -59 4 -63 28 -4 28 35 0 46 -4 46 -16z m-3296 -20 c3 -9 4 -20 0 -25
-8 -13 -32 -11 -37 4 -11 32 25 53 37 21z m604 -18 c-4 -27 -43 -34 -52 -9 -5
11 -1 22 9 30 23 16 47 5 43 -21z m729 4 c13 -15 30 -20 65 -20 36 0 48 -4 48
-15 0 -12 -16 -15 -85 -15 l-85 0 0 35 c0 28 4 35 20 35 11 0 28 -9 37 -20z
m2911 -180 c-129 -131 -155 -153 -168 -143 -12 11 -10 18 18 46 18 17 87 89
155 158 105 107 124 123 135 110 10 -13 -11 -39 -140 -171z m255 169 c6 -9 7
-25 3 -35 -7 -18 -9 -17 -32 9 -25 29 -24 50 3 45 9 -2 20 -10 26 -19z m-2062
-26 c98 -89 158 -265 138 -407 -10 -77 -66 -190 -120 -241 l-41 -40 38 52 c50
67 83 122 63 106 -13 -10 -13 -2 2 55 32 120 22 229 -31 348 -37 80 -54 90
-31 17 10 -32 25 -78 32 -103 16 -53 16 -198 0 -256 -11 -41 -68 -130 -77
-121 -3 3 2 22 11 43 9 21 18 63 21 94 6 51 4 56 -17 65 -13 6 -25 20 -27 33
-2 12 -8 22 -13 22 -6 0 -9 15 -7 33 2 26 9 34 35 42 39 13 47 20 38 35 -5 8
-11 6 -19 -6 -10 -13 -15 -14 -21 -5 -4 7 -2 18 4 24 15 15 14 27 -4 27 -10 0
-15 -10 -15 -28 0 -38 -9 -46 -31 -26 -21 19 -51 12 -43 -9 3 -9 -3 -17 -18
-21 -36 -9 -39 -8 -32 19 6 24 5 26 -22 19 -16 -4 -33 -13 -37 -21 -9 -15 -37
-18 -37 -3 0 18 -30 11 -38 -9 -4 -10 -21 -34 -39 -54 -37 -42 -61 -40 -70 4
-3 16 -12 29 -19 29 -41 0 -37 96 4 115 13 6 25 20 29 33 8 32 38 45 88 38 41
-7 43 -6 43 20 0 29 34 70 51 60 6 -4 11 -16 11 -27 0 -14 -9 -21 -31 -26 -22
-4 -27 -8 -17 -14 26 -17 39 -8 58 36 16 36 29 50 62 65 61 28 83 25 129 -17z
m834 17 c-3 -5 -16 -10 -28 -9 -21 0 -21 1 -2 9 28 12 37 12 30 0z m1270 -153
c0 -12 -289 -317 -300 -317 -2 0 -30 28 -63 62 -36 37 -58 67 -54 75 4 6 72
77 151 158 l143 146 62 -54 c33 -30 61 -62 61 -70z m-805 63 c0 -20 -7 -20
-493 -20 l-494 0 -6 -337 c-4 -186 -7 -475 -7 -643 l0 -305 -57 57 -57 57 3
363 2 363 41 100 c40 97 41 104 46 243 l5 142 508 0 c502 0 509 0 509 -20z
m-1585 0 c3 -5 1 -10 -4 -10 -6 0 -11 5 -11 10 0 6 2 10 4 10 3 0 8 -4 11 -10z
m2514 -72 c-1 -47 -3 -57 -9 -38 -12 36 -12 100 0 100 6 0 10 -27 9 -62z
m-4311 -605 l2 -653 -305 0 -305 0 0 643 c0 491 3 646 12 655 9 9 85 12 303
10 l290 -3 3 -652z m3599 641 c5 -17 -15 -37 -31 -31 -14 5 -15 11 -6 27 11
21 31 23 37 4z m-2649 -10 l32 -6 0 -639 0 -639 -415 0 -415 0 0 645 0 644
383 1 c210 0 397 -2 415 -6z m3422 -51 c0 -41 -3 -54 -10 -43 -13 20 -13 100
0 100 6 0 10 -26 10 -57z m-3222 27 c19 -30 -1 -62 -36 -58 -19 2 -28 10 -30
26 -7 47 42 70 66 32z m2232 -356 c0 -289 -3 -365 -12 -361 -58 22 -200 68
-202 65 -2 -2 -1 -20 1 -40 5 -36 7 -38 79 -64 70 -25 104 -48 91 -60 -3 -3
-41 8 -84 24 -43 17 -85 32 -94 35 -12 4 -18 23 -23 67 -6 53 -10 62 -32 70
-14 6 -29 10 -33 10 -5 0 -11 -78 -14 -172 -6 -177 -29 -410 -51 -508 -12 -55
-12 -55 -30 135 -10 105 -24 239 -30 299 -12 104 -12 110 7 129 19 19 19 20
-11 50 l-31 30 56 40 c52 37 54 41 48 74 -5 26 1 49 25 101 41 85 51 217 21
273 -59 111 -268 110 -326 -1 -9 -17 -15 -62 -16 -117 -2 -81 0 -94 30 -156
18 -37 32 -80 31 -95 -3 -45 -2 -47 48 -82 26 -18 49 -35 51 -37 3 -2 -8 -17
-24 -33 l-29 -30 21 -22 20 -23 -23 -200 c-13 -110 -30 -240 -37 -290 l-13
-90 -12 80 c-21 145 -52 474 -52 560 0 47 -2 85 -4 85 -1 0 -17 -5 -34 -11
-29 -10 -31 -14 -34 -67 l-3 -56 -94 -38 c-52 -21 -96 -36 -99 -33 -14 14 15
36 78 60 75 29 84 37 78 78 l-3 25 -75 -29 c-41 -16 -83 -32 -92 -35 -17 -5
-18 17 -18 360 l0 366 475 0 475 0 0 -366z m-2054 334 c-29 -103 -36 -142 -36
-211 0 -80 20 -178 46 -228 7 -15 36 -56 65 -91 42 -52 47 -64 32 -67 -23 -4
-122 100 -151 160 -39 81 -55 166 -49 259 5 73 12 106 42 188 2 6 16 12 31 12
23 0 25 -3 20 -22z m2914 -21 c0 -15 -45 -67 -150 -172 -133 -133 -151 -148
-165 -135 -13 14 3 33 142 173 86 86 160 157 165 157 4 0 8 -10 8 -23z m378
-57 c44 -27 62 -74 62 -160 0 -56 -3 -70 -15 -70 -12 0 -15 13 -15 60 0 84
-19 125 -64 140 -46 15 -87 6 -117 -26 -17 -19 -24 -38 -26 -87 -5 -81 -11
-109 -23 -102 -6 3 -10 43 -10 87 0 90 19 136 68 163 39 21 101 18 140 -5z
m-5394 -6 c9 -3 16 -15 16 -25 0 -16 -8 -19 -55 -19 -47 0 -55 3 -55 18 0 10
3 22 7 25 8 9 66 9 87 1z m4376 -9 c0 -21 -30 -31 -40 -14 -11 17 -3 29 21 29
10 0 19 -7 19 -15z m-1640 -36 c0 -6 9 -8 21 -4 16 5 20 3 17 -6 -7 -21 -62
-18 -66 4 -2 10 3 17 12 17 9 0 16 -5 16 -11z m-2720 -699 l0 -690 -55 0 -55
0 0 127 0 127 43 38 c41 38 41 38 7 18 -47 -27 -50 -26 -50 17 0 29 8 46 38
77 l37 39 -37 -21 -38 -21 0 54 c0 29 5 57 10 60 6 3 10 11 10 16 0 6 -4 7
-10 4 -6 -4 -10 37 -10 116 l0 123 33 34 32 33 -28 -10 c-38 -15 -37 -15 -37
24 0 27 9 43 43 76 l42 41 -36 -21 c-20 -12 -39 -21 -43 -21 -3 0 -6 21 -6 46
0 33 5 51 18 60 16 13 16 13 0 14 -16 0 -18 12 -18 106 0 92 3 110 22 136 l21
30 -21 -11 c-21 -11 -22 -9 -22 22 0 44 4 47 62 47 l48 0 0 -690z m1880 155
c0 -469 -2 -535 -15 -535 -13 0 -15 66 -15 535 0 469 2 535 15 535 13 0 15
-66 15 -535z m3410 521 c0 -3 -4 -8 -10 -11 -5 -3 -10 -1 -10 4 0 6 5 11 10
11 6 0 10 -2 10 -4z m-723 -108 c29 -29 53 -56 53 -62 0 -11 -87 -91 -116
-107 -17 -9 -27 -8 -47 6 l-26 17 47 45 c55 54 43 70 -13 18 -43 -39 -55 -43
-55 -18 0 18 86 153 98 153 3 0 30 -23 59 -52z m785 4 c14 -14 -7 -49 -34 -58
-25 -8 -58 25 -58 58 0 18 5 20 41 15 23 -3 46 -10 51 -15z m-302 -10 c0 -24
-8 -32 -26 -25 -22 8 -17 43 6 43 13 0 20 -7 20 -18z m620 -6 c8 -11 9 -20 1
-33 -8 -14 -10 -15 -11 -2 0 26 -21 40 -39 26 -14 -11 -14 -10 -2 6 16 21 35
22 51 3z m-1310 -5 c0 -5 -7 -11 -14 -14 -10 -4 -13 -1 -9 9 6 15 23 19 23 5z
m-4589 -11 c10 -6 19 -20 19 -31 0 -20 -4 -21 -62 -14 -70 8 -73 9 -63 25 16
26 74 37 106 20z m4459 -562 c0 -477 -1 -508 -17 -508 -17 0 -18 34 -21 543
l-2 542 19 -35 c19 -34 20 -56 21 -542z m-4442 447 c3 -26 2 -28 -28 -21 -18
3 -48 6 -66 6 -27 0 -34 4 -34 19 0 17 8 21 53 24 71 4 72 4 75 -28z m5192
-20 c0 -11 -11 -15 -40 -15 -29 0 -40 4 -40 15 0 11 11 15 40 15 29 0 40 -4
40 -15z m518 -2 c3 -10 -49 -13 -237 -13 -209 0 -241 2 -241 15 0 13 31 15
237 13 178 -2 237 -6 241 -15z m112 2 c0 -11 -12 -15 -45 -15 -33 0 -45 4 -45
15 0 11 12 15 45 15 33 0 45 -4 45 -15z m-5830 -407 c0 -409 -8 -638 -22 -638
-4 0 -8 147 -8 328 0 180 -3 405 -7 500 -6 172 -6 172 -30 172 -23 0 -23 -1
-23 -109 0 -110 -5 -141 -21 -141 -10 0 -12 253 -2 263 3 4 30 7 60 7 l53 0 0
-382z m4655 297 c31 -31 31 -46 0 -75 -21 -20 -30 -22 -52 -14 -17 5 -32 21
-38 38 -8 25 -6 31 18 52 35 30 42 30 72 -1z m732 0 c39 -12 60 -26 83 -56
l32 -40 35 40 c54 63 94 71 369 71 265 0 269 -1 285 -80 9 -51 12 -763 3 -797
-6 -22 -11 -23 -108 -23 -78 0 -126 6 -201 26 -161 42 -296 25 -359 -45 -25
-28 -28 -27 -81 14 -82 62 -176 71 -340 30 -74 -18 -127 -25 -202 -25 l-103 0
0 419 0 419 26 31 26 31 242 0 c188 0 254 -3 293 -15z m-5607 -40 c0 -24 -3
-25 -55 -25 -47 0 -55 3 -55 18 0 28 9 32 62 32 45 0 48 -2 48 -25z m2478 -46
c2 -14 -4 -31 -12 -38 -22 -18 -66 -6 -66 18 0 39 11 52 44 49 25 -2 32 -8 34
-29z m-2488 1 c13 -8 15 -72 18 -455 l3 -445 -60 0 c-57 0 -61 2 -61 23 0 58
13 95 36 106 13 6 24 17 24 26 0 12 -5 10 -21 -6 -17 -17 -23 -19 -30 -8 -17
27 -9 58 26 99 42 50 44 59 9 31 -15 -12 -31 -21 -36 -21 -16 0 1 71 23 98 20
26 18 45 -3 24 -23 -23 -31 -12 -24 35 3 27 15 57 28 70 12 13 16 23 10 23 -6
0 -14 -4 -17 -10 -14 -23 -22 -7 -18 38 4 34 12 53 29 67 32 27 31 40 -1 19
l-25 -16 0 45 c0 25 5 49 10 52 6 3 10 11 10 16 0 6 -4 7 -10 4 -6 -4 -10 16
-10 52 0 32 -3 74 -6 95 -5 30 -3 37 12 41 33 8 68 7 84 -3z m3398 -2 c28 -28
-4 -77 -41 -62 -22 8 -28 42 -10 59 18 18 35 19 51 3z m-240 -103 c3 -14 -22
-15 -210 -13 -182 3 -213 5 -216 18 -2 14 23 16 210 13 182 -2 213 -5 216 -18z
m1740 -23 c3 -27 0 -32 -17 -32 -14 0 -21 6 -21 19 0 56 33 67 38 13z m-5080
-19 c3 -22 0 -23 -52 -23 -49 0 -56 3 -56 19 0 24 14 30 65 28 33 -2 41 -6 43
-24z m6738 -9 c8 -32 0 -291 -9 -301 -16 -15 -21 14 -25 141 -5 135 0 186 18
186 5 0 13 -12 16 -26z m-3236 -46 c26 -14 57 -41 75 -66 25 -36 30 -53 30
-102 0 -49 -5 -66 -30 -101 -57 -81 -156 -103 -245 -55 -35 19 -49 22 -67 13
-37 -16 -101 7 -109 40 -10 40 15 77 54 81 26 3 33 9 37 30 21 102 50 142 121
167 55 20 83 18 134 -7z m-617 -2 c99 -36 171 -144 165 -248 l-3 -53 -70 0
c-80 0 -81 2 -70 92 4 33 14 60 26 72 19 18 19 18 -2 45 -11 14 -33 33 -49 41
l-28 15 5 -140 6 -140 -51 0 c-43 0 -52 3 -58 22 -6 20 -8 20 -19 5 -9 -12
-27 -17 -64 -17 -28 0 -51 4 -51 9 0 5 19 20 43 33 47 26 61 64 32 88 -25 20
-40 -8 -18 -32 18 -20 18 -20 -14 -37 -41 -21 -46 -15 -41 54 5 81 41 138 113
177 55 30 91 34 148 14z m2081 -8 c3 -13 6 -67 6 -120 0 -81 -3 -98 -15 -98
-12 0 -15 20 -15 120 0 112 9 151 24 98z m-4971 0 c9 -28 -6 -38 -54 -38 -41
0 -49 3 -49 18 0 10 3 22 7 25 12 12 91 8 96 -5z m3175 -14 c2 -11 -4 -26 -12
-33 -31 -26 -71 14 -45 45 17 21 53 14 57 -12z m1929 -30 c8 -20 -8 -48 -30
-52 -19 -4 -39 30 -31 52 8 21 53 21 61 0z m-5111 -138 c-3 -66 -6 -196 -7
-290 -1 -237 -15 -171 -28 136 -6 135 -14 253 -17 262 -5 12 1 15 26 13 l33
-2 -7 -119z m-86 89 c0 -8 -4 -15 -9 -15 -13 0 -22 16 -14 24 11 11 23 6 23
-9z m6960 -60 c10 -12 10 -18 0 -30 -16 -20 -36 -19 -44 1 -6 16 9 44 24 44 4
0 13 -7 20 -15z m-1782 -11 c26 -7 30 -45 6 -65 -29 -24 -65 17 -50 57 6 16
11 16 44 8z m-5273 -21 c19 -9 35 -21 35 -26 0 -9 -188 -317 -215 -351 -14
-19 -15 -19 -37 0 -34 29 -38 36 -26 58 33 66 194 336 200 336 4 0 23 -8 43
-17z m48 -82 c-5 -3 -34 -50 -64 -103 -30 -54 -57 -98 -61 -98 -11 0 1 27 45
100 61 102 82 130 86 119 2 -6 -1 -14 -6 -18z m5217 -61 c0 -49 -13 -68 -22
-32 -7 25 2 82 13 82 5 0 9 -22 9 -50z m1989 -31 c13 -24 13 -29 -2 -53 -31
-46 -97 -31 -97 23 0 60 71 81 99 30z m-192 -57 c27 -31 77 -98 113 -147 36
-50 86 -118 112 -153 27 -35 48 -69 48 -76 0 -10 -39 -36 -55 -36 -10 0 -125
154 -125 166 0 27 20 13 61 -41 23 -30 43 -55 46 -55 13 0 -91 155 -187 278
-44 57 -80 108 -80 113 0 21 22 5 67 -49z m-3 -95 c78 -98 93 -127 66 -127
-15 0 -170 204 -170 223 0 10 4 17 9 15 5 -1 48 -52 95 -111z m-131 -13 c7
-96 4 -119 -13 -109 -11 7 -12 205 -1 205 4 0 11 -43 14 -96z m-1655 2 c4 -21
-14 -37 -35 -29 -14 5 -18 35 -6 47 12 12 38 1 41 -18z m-3650 -73 l-3 -48
-160 -3 c-88 -2 -215 0 -283 3 -140 8 -169 20 -157 68 l7 27 300 0 299 0 -3
-47z m432 29 c58 -4 101 -10 95 -13 -5 -4 -46 -14 -90 -23 -44 -9 -102 -23
-129 -31 -27 -8 -101 -18 -163 -22 l-113 -6 0 58 0 58 148 -8 c81 -3 194 -10
252 -13z m-2260 -34 c0 -19 -45 4 -54 27 -5 14 -2 14 24 -2 17 -9 30 -21 30
-25z m-48 -31 l26 -19 -29 -48 c-36 -59 -141 -160 -147 -141 -10 30 91 246
111 235 7 -4 24 -16 39 -27z m3903 2 c94 -11 309 -53 351 -69 l24 -10 0 -345
c0 -190 -2 -345 -4 -345 -2 0 -48 14 -102 30 -195 60 -323 80 -517 80 -343 0
-669 -103 -893 -281 -546 -434 -714 -1328 -383 -2029 201 -425 571 -700 1034
-769 251 -37 559 -10 791 69 32 11 61 20 66 20 4 0 7 -158 6 -352 l-3 -352
-30 -8 c-324 -92 -773 -103 -1120 -28 -640 139 -1189 563 -1475 1138 -244 494
-304 1094 -164 1653 247 991 1128 1645 2174 1613 85 -3 196 -10 245 -15z
m-3676 -73 c27 -28 30 -34 14 -30 -12 3 -24 1 -27 -5 -9 -14 -39 -14 -54 1 -9
9 4 37 34 67 0 1 15 -14 33 -33z m-151 -29 c2 -12 -3 -17 -17 -17 -12 0 -21 6
-21 13 0 31 32 34 38 4z m567 3 c0 -11 -13 -15 -54 -15 -58 0 -83 20 -34 28
52 8 88 3 88 -13z m435 -6 c0 -10 -15 -14 -55 -14 -41 0 -55 4 -55 14 0 9 12
16 33 18 47 4 77 -2 77 -18z m668 14 c-4 -10 -69 -14 -271 -16 -233 -2 -267 0
-267 13 0 13 35 15 271 15 212 0 270 -3 267 -12z m-1318 -13 c0 -8 -4 -15 -10
-15 -5 0 -10 7 -10 15 0 8 5 15 10 15 6 0 10 -7 10 -15z m5834 -7 c15 -13 29
-38 32 -56 6 -32 6 -33 -22 -30 -21 2 -29 -2 -32 -16 -3 -15 1 -18 22 -14 32
6 32 1 4 -29 -22 -23 -80 -32 -104 -15 -24 17 -44 59 -44 95 0 77 86 116 144
65z m-224 -3 c0 -13 -26 -15 -170 -15 -144 0 -170 2 -170 15 0 13 26 15 170
15 144 0 170 -2 170 -15z m1270 0 c0 -13 -53 -15 -415 -15 -362 0 -415 2 -415
15 0 13 53 15 415 15 362 0 415 -2 415 -15z m-5272 -1 c40 -11 23 -24 -33 -24
-55 0 -75 15 -32 23 36 7 41 7 65 1z m4334 -9 c0 -5 -5 -11 -11 -13 -6 -2 -11
4 -11 13 0 9 5 15 11 13 6 -2 11 -8 11 -13z m1342 -54 c19 -21 15 -50 -10 -76
-14 -13 -19 -13 -44 0 -38 20 -42 27 -29 64 9 25 17 31 38 31 16 0 36 -9 45
-19z m-725 -4 c14 -18 4 -27 -31 -27 -43 0 -35 36 8 39 6 1 17 -5 23 -12z
m-619 -22 c0 -14 -4 -25 -10 -25 -5 0 -10 11 -10 25 0 14 5 25 10 25 6 0 10
-11 10 -25z m980 12 c0 -9 -14 -12 -47 -11 -66 3 -69 24 -4 24 35 0 51 -4 51
-13z m-6915 -67 c75 -45 126 -75 320 -192 44 -26 79 -51 78 -54 -4 -19 -488
-347 -503 -342 -6 2 21 30 60 63 79 65 170 161 170 178 0 6 -10 1 -23 -11 -32
-30 -41 -28 -23 6 8 15 17 35 20 45 3 9 15 17 26 17 29 0 25 28 -5 36 -16 4
-25 13 -25 25 0 14 7 19 25 19 34 0 32 15 -4 30 -16 6 -42 26 -57 43 -16 17
-20 24 -9 16 11 -9 31 -22 45 -29 42 -21 -78 97 -152 150 -37 26 -65 50 -62
53 9 9 32 -2 119 -53z m1355 44 c0 -3 -5 -14 -10 -25 -14 -24 -76 -26 -102 -2
-30 27 -21 33 47 33 36 0 65 -3 65 -6z m130 -13 c0 -49 -118 -38 -120 12 0 4
27 7 60 7 52 0 60 -2 60 -19z m-744 -7 c39 -19 92 -76 75 -82 -6 -2 -32 10
-58 27 -33 22 -58 31 -88 31 -110 0 -180 -129 -126 -230 21 -40 83 -80 124
-80 32 0 84 24 109 50 16 17 15 19 -13 30 -16 7 -29 16 -29 21 0 14 22 10 41
-7 9 -8 26 -16 38 -17 29 -2 27 -7 -16 -49 -51 -48 -73 -58 -128 -58 -56 0
-92 17 -133 64 -55 63 -62 136 -22 216 43 85 144 123 226 84z m329 -3 c51 -24
81 -56 100 -110 31 -88 14 -152 -54 -213 -38 -35 -46 -38 -102 -38 -67 0 -89
9 -136 53 -60 57 -37 64 38 12 80 -55 148 -44 205 31 73 95 -5 244 -128 244
-20 0 -51 -12 -78 -30 -50 -33 -60 -36 -60 -17 0 33 89 86 145 86 17 0 48 -8
70 -18z m6110 -7 c0 -14 -7 -19 -25 -19 -30 0 -40 31 -13 38 28 7 38 2 38 -19z
m-2155 -2044 l0 -2060 -384 0 -384 0 -6 23 c-3 12 -5 939 -4 2059 l3 2038 388
0 387 0 0 -2060z m570 2045 c0 -12 -20 -15 -120 -15 -100 0 -120 3 -120 15 0
13 20 15 120 15 100 0 120 -2 120 -15z m690 0 c0 -12 -20 -15 -120 -15 -100 0
-120 3 -120 15 0 13 20 15 120 15 100 0 120 -2 120 -15z m-5898 -12 c24 -21
23 -50 -2 -63 -45 -24 -86 44 -42 69 23 14 23 14 44 -6z m-1032 -12 c22 -42
-25 -77 -61 -45 -23 21 -24 28 -3 48 21 22 51 20 64 -3z m462 -7 c37 -11 49
-20 54 -40 6 -23 10 -25 39 -20 30 6 35 3 69 -46 36 -54 44 -82 26 -93 -14 -8
-13 -51 2 -74 27 -45 -55 -181 -100 -167 -14 5 -25 -1 -38 -19 -14 -19 -32
-26 -69 -31 -27 -4 -59 -15 -71 -25 -11 -11 -23 -16 -27 -13 -3 4 -22 3 -41 0
-25 -5 -36 -13 -40 -32 -9 -34 -63 -65 -101 -58 -23 4 -35 0 -49 -15 -11 -12
-25 -21 -32 -21 -7 0 -15 -4 -18 -9 -7 -10 108 -168 141 -194 13 -10 29 -33
37 -51 14 -34 145 -216 155 -216 3 1 37 57 75 126 48 86 75 124 85 122 9 -2
44 -41 78 -87 35 -46 105 -134 156 -195 182 -218 217 -263 217 -283 0 -12 -7
-24 -16 -27 -27 -10 -1420 -7 -1448 4 -15 5 -26 17 -26 28 0 10 40 72 88 138
94 128 216 301 356 507 68 100 82 127 68 127 -11 0 -31 11 -46 25 -30 28 -46
31 -65 13 -20 -21 -94 63 -85 97 5 20 1 27 -19 36 -16 7 -29 23 -32 40 -8 38
3 89 20 89 7 0 18 7 26 16 10 12 10 20 1 35 -17 27 -15 40 18 78 25 30 33 33
63 27 29 -5 35 -3 45 18 7 17 22 27 45 31 58 11 91 3 105 -27 8 -17 18 -25 27
-21 8 3 15 8 16 12 5 48 12 69 34 102 21 32 31 39 53 37 24 -3 27 1 30 30 3
29 6 32 25 26 32 -11 58 -7 76 11 9 8 22 13 31 9 8 -3 36 -12 62 -20z m7096
-87 c2 -69 0 -88 -10 -85 -8 3 -14 28 -16 71 l-3 67 -203 0 -203 0 -7 -70 c-4
-38 -11 -70 -17 -70 -14 0 -11 154 3 168 9 9 70 12 233 10 l220 -3 3 -88z
m-6000 6 c3 -10 -20 -13 -93 -13 -84 0 -96 2 -85 14 21 26 169 25 178 -1z
m490 -9 c4 -25 -22 -38 -37 -20 -15 18 -3 48 18 44 9 -2 17 -13 19 -24z m4222
-14 c0 -33 19 -40 40 -15 7 8 17 15 22 15 11 0 55 -32 94 -67 27 -25 34 -69 9
-59 -11 4 -15 -1 -15 -17 0 -31 11 -44 40 -48 23 -4 25 -8 25 -59 0 -53 -1
-55 -32 -64 -36 -10 -42 -30 -18 -56 14 -15 13 -19 -5 -42 -10 -14 -33 -31
-50 -38 -16 -7 -30 -17 -30 -22 0 -5 -12 -7 -28 -4 -22 5 -29 2 -37 -16 -15
-34 -69 -37 -95 -6 -18 23 -19 23 -48 6 -41 -25 -50 -23 -72 15 -10 18 -33 40
-50 50 -31 19 -38 44 -21 76 13 23 2 38 -29 42 -20 3 -26 10 -28 38 -6 55 5
81 33 81 33 0 45 42 20 70 -17 19 -17 21 10 56 21 27 32 34 49 30 14 -4 26 1
37 15 15 20 19 20 52 8 40 -14 57 -8 38 15 -14 16 1 23 57 25 29 1 32 -2 32
-29z m-4637 -5 c69 -4 77 -6 77 -20 0 -11 -12 -15 -44 -15 -41 0 -45 -2 -48
-27 -3 -25 -6 -28 -38 -25 -96 7 -210 30 -210 42 0 5 -25 12 -55 15 -51 7 -77
24 -37 26 62 2 231 -3 249 -7 13 -4 28 1 40 14 13 14 22 16 31 8 8 -5 24 -11
35 -11z m5395 -32 l3 -43 -45 0 c-44 0 -46 1 -46 30 0 19 -5 30 -14 30 -30 0
-46 -13 -46 -36 0 -24 -2 -24 -90 -24 l-90 0 0 -486 c0 -439 2 -486 16 -480 9
3 294 6 635 6 l619 0 -2 478 -3 477 -102 3 c-69 2 -103 7 -103 14 0 19 -32 48
-52 48 -17 0 -19 -5 -13 -30 6 -30 6 -30 -34 -30 l-41 0 0 43 0 43 198 -4
c108 -2 198 -5 199 -6 6 -5 5 -1117 -1 -1123 -4 -5 -115 -9 -247 -11 l-239 -3
0 30 c0 45 -23 53 -134 45 l-95 -7 -3 -31 -3 -31 -337 0 -338 0 -5 40 c-3 22
-4 276 -3 565 l3 525 180 6 c254 7 229 11 233 -38z m-1 -82 c1 -1 3 -13 5 -28
l3 -28 293 -3 292 -2 0 29 c0 38 4 39 173 40 l137 1 0 -445 0 -446 -437 1
c-241 1 -509 4 -595 7 l-158 6 0 432 c0 237 3 435 8 439 5 6 260 2 279 -3z
m-5132 -22 c0 -7 -8 -15 -17 -17 -18 -3 -25 18 -11 32 10 10 28 1 28 -15z
m-182 -135 c133 -12 84 -24 -93 -24 -99 0 -170 4 -170 9 0 17 141 25 263 15z
m-646 -16 c-2 -7 -10 -12 -16 -10 -15 3 -14 -15 2 -21 7 -3 5 -6 -5 -6 -10 -1
-18 3 -18 8 0 21 13 41 27 41 8 0 13 -6 10 -12z m315 -71 c58 -34 122 -104
139 -153 7 -21 13 -68 14 -104 0 -53 -6 -77 -32 -130 -18 -36 -48 -87 -67
-113 -20 -27 -40 -65 -46 -85 -5 -20 -10 -119 -10 -219 l0 -183 -26 0 -25 0 3
233 3 232 33 57 c32 56 39 98 16 105 -5 2 -35 -32 -65 -74 l-54 -78 -3 -232
-3 -233 -47 -1 c-49 -1 -85 1 -90 6 -1 1 -5 77 -7 169 -3 92 -10 188 -16 214
-6 27 -33 81 -64 128 -85 127 -99 212 -56 326 15 40 79 107 125 130 65 33 86
38 162 34 55 -2 82 -9 116 -29z m286 -35 c4 -29 -26 -42 -44 -18 -17 24 -6 48
20 44 13 -2 22 -12 24 -26z m6531 -91 c11 -21 4 -39 -21 -52 -25 -13 -48 4
-48 37 0 41 50 52 69 15z m-8464 -16 c0 -30 -39 -27 -43 3 -3 20 0 23 20 20
15 -2 23 -10 23 -23z m1057 -22 c24 -21 23 -40 -3 -53 -37 -20 -67 28 -37 58
15 15 18 15 40 -5z m-282 -57 c0 -8 -5 -18 -11 -22 -14 -8 -33 11 -25 25 10
16 36 13 36 -3z m-760 -45 c0 -25 -30 -36 -48 -17 -19 18 -7 36 24 36 17 0 24
-6 24 -19z m6530 -16 c0 -23 2 -24 43 -19 35 5 45 2 64 -18 12 -12 23 -34 25
-48 2 -21 9 -26 40 -28 45 -4 66 -32 50 -66 -6 -11 -13 -39 -15 -61 -3 -22 -8
-50 -12 -62 -6 -18 -3 -23 9 -23 14 0 17 -8 14 -37 -3 -33 -7 -39 -38 -48 -50
-14 -60 -23 -60 -50 0 -31 -30 -47 -78 -43 -55 4 -51 28 10 63 62 36 93 78
102 139 11 69 -9 124 -63 177 -35 35 -56 48 -89 54 -128 21 -246 -76 -245
-200 0 -59 18 -98 65 -141 44 -42 69 -54 112 -54 29 0 38 -5 51 -30 9 -17 13
-35 10 -40 -12 -19 -57 -10 -76 15 -17 21 -23 23 -44 13 -35 -16 -71 3 -92 47
-13 28 -23 35 -45 35 -39 0 -65 39 -46 72 14 26 19 168 5 168 -14 0 -3 52 13
61 8 4 28 10 43 14 21 4 27 10 23 23 -4 12 6 29 29 52 32 31 37 32 59 20 31
-16 56 -7 56 20 0 17 6 20 40 20 36 0 40 -3 40 -25z m-2600 -5 c0 -5 -10 -10
-22 -9 -22 0 -22 1 -3 9 11 5 21 9 23 9 1 1 2 -3 2 -9z m-3284 -25 c8 -19 -13
-45 -36 -45 -23 0 -34 28 -19 46 15 19 48 18 55 -1z m3743 -6 c111 -17 230
-97 247 -164 4 -17 17 -43 28 -58 17 -23 18 -31 8 -45 -7 -9 -16 -27 -22 -39
-14 -34 -32 -29 -19 4 22 60 -13 123 -69 123 -18 0 -23 -4 -18 -16 3 -9 6 -20
6 -25 0 -5 7 -9 15 -9 8 0 15 -4 15 -8 0 -16 -68 -82 -84 -82 -9 0 -16 -4 -16
-10 0 -5 -7 -7 -15 -4 -12 5 -15 -2 -15 -30 0 -23 5 -39 15 -42 26 -10 16 -31
-16 -38 -30 -6 -31 -8 -26 -41 5 -31 2 -36 -25 -50 -44 -22 -58 -19 -58 11 0
22 4 26 24 22 23 -5 24 -3 20 41 -10 126 -6 116 -42 119 -27 3 -33 0 -32 -15
4 -32 0 -43 -14 -43 -7 0 -16 8 -19 18 -2 12 -17 22 -37 26 -18 3 -38 13 -45
22 -11 15 -17 13 -69 -20 -31 -20 -61 -36 -66 -36 -5 0 -20 35 -33 78 -22 73
-25 77 -55 80 -24 2 -32 -1 -32 -12 0 -9 5 -15 12 -13 6 1 15 -17 20 -43 5
-25 17 -51 26 -58 15 -12 12 -17 -30 -58 -50 -47 -56 -59 -35 -67 8 -3 6 -11
-9 -28 -30 -34 -35 -54 -18 -78 8 -12 12 -26 9 -32 -9 -14 37 -79 96 -134 104
-98 269 -143 407 -112 195 44 333 175 373 354 10 45 10 73 0 147 -26 180 -25
172 -8 157 26 -21 57 -117 63 -194 11 -127 -33 -248 -126 -350 -65 -71 -145
-120 -240 -146 -305 -85 -591 84 -655 387 -27 127 -14 196 63 313 59 90 141
148 265 189 85 28 110 29 236 9z m-639 -14 c0 -18 -5 -25 -20 -25 -20 0 -28
28 -13 43 15 16 33 6 33 -18z m4715 -22 c20 -47 13 -63 -25 -63 -28 0 -30 2
-24 28 10 39 23 72 29 72 2 0 12 -17 20 -37z m-3585 7 c0 -13 -7 -20 -19 -20
-22 0 -35 15 -26 30 12 19 45 11 45 -10z m1667 -31 c34 -13 80 -55 99 -91 22
-42 18 -124 -8 -170 -29 -50 -74 -78 -140 -85 -136 -13 -232 132 -169 255 24
47 50 70 98 88 47 16 83 17 120 3z m-6583 -75 c34 -33 4 -75 -39 -56 -29 13
-31 28 -8 54 20 22 27 22 47 2z m3746 -74 l0 -80 -39 0 -39 0 -4 73 c-2 40 1
75 7 79 6 4 25 8 43 8 l32 0 0 -80z m4750 55 c0 -7 7 -19 16 -26 9 -7 20 -24
25 -38 13 -34 -4 -43 -66 -35 -27 4 -56 7 -63 7 -17 0 -11 15 30 69 31 42 58
53 58 23z m-7395 -4 c0 -8 -8 -19 -17 -25 -22 -13 -44 5 -34 29 7 20 51 16 51
-4z m2420 -23 c30 -13 31 -22 6 -47 -10 -10 -20 -24 -23 -31 -3 -9 -10 -9 -32
1 -26 12 -30 11 -47 -10 -23 -28 -25 -74 -4 -91 9 -8 28 -10 55 -5 39 7 40 6
40 -24 0 -36 -25 -53 -82 -55 -54 -1 -108 53 -115 115 -11 109 103 192 202
147z m1105 -127 c0 -6 -5 -13 -11 -17 -6 -3 -18 -20 -26 -38 l-14 -31 6 34 c5
35 21 61 36 61 5 0 9 -4 9 -9z m-3382 -28 c2 -14 -3 -23 -17 -28 -26 -8 -41 1
-41 25 0 35 53 38 58 3z m2471 11 l61 -7 0 -33 0 -34 -109 0 -109 0 -4 35 c-4
32 -2 34 27 38 55 7 72 7 134 1z m4871 -24 c0 -16 -7 -20 -33 -20 -44 0 -63
-16 -82 -69 -8 -24 -15 -45 -15 -46 0 -1 20 0 45 3 43 4 45 4 45 -21 0 -24 -3
-26 -29 -21 -21 5 -34 0 -49 -16 -64 -69 -11 -160 58 -100 30 26 30 25 30 -9
0 -23 -7 -32 -34 -45 -47 -22 -60 -20 -101 15 -39 35 -45 70 -19 107 9 13 14
33 11 44 -8 30 38 149 65 170 23 17 45 24 86 27 16 1 22 -5 22 -19z m-4260
-88 c0 -43 18 -93 42 -119 18 -19 28 -22 57 -17 41 8 73 22 83 38 5 7 17 0 33
-21 14 -17 41 -37 61 -43 28 -9 34 -16 28 -29 -4 -9 -7 -32 -6 -52 1 -33 -2
-38 -38 -54 -36 -16 -42 -16 -58 -3 -31 27 -53 29 -88 7 l-34 -21 -20 47 c-11
26 -20 51 -20 56 0 6 33 26 73 45 39 19 63 31 52 27 -11 -4 -44 -8 -72 -8 -46
0 -57 4 -84 31 -31 31 -49 95 -36 129 10 25 27 17 27 -13z m280 3 c0 -25 -14
-34 -24 -16 -8 12 3 41 15 41 5 0 9 -11 9 -25z m3168 3 c3 -16 -6 -18 -72 -18
-59 0 -76 3 -76 14 0 21 17 25 85 23 48 -2 60 -5 63 -19z m-4488 -18 c0 -5 -5
-10 -11 -10 -5 0 -7 5 -4 10 3 6 8 10 11 10 2 0 4 -4 4 -10z m1300 -35 c7 -8
20 -15 30 -15 39 0 54 -61 17 -68 -12 -2 -17 3 -17 18 0 12 -4 18 -10 15 -5
-3 -7 0 -5 7 4 10 -6 14 -35 14 -50 2 -61 11 -36 30 25 18 40 18 56 -1z
m-1430 -49 c0 -28 -28 -42 -47 -23 -19 19 -5 47 23 47 19 0 24 -5 24 -24z
m604 15 c4 -5 -3 -7 -14 -4 -23 6 -26 13 -6 13 8 0 17 -4 20 -9z m746 0 c0
-12 -20 -25 -27 -18 -7 7 6 27 18 27 5 0 9 -4 9 -9z m1763 -18 c-7 -3 -14 -14
-14 -26 -1 -18 -2 -19 -6 -4 -5 19 16 52 26 41 3 -4 0 -9 -6 -11z m-2687 -25
c209 -77 339 -284 305 -484 -51 -289 -360 -451 -621 -326 -73 35 -169 132
-203 204 -64 136 -51 321 32 441 111 162 311 230 487 165z m3333 6 c2 -2 -19
-4 -48 -4 -81 0 -91 -9 -91 -84 0 -34 -3 -66 -7 -69 -12 -12 -53 36 -53 61 0
23 61 92 94 106 11 5 98 -4 105 -10z m638 10 c12 -3 24 -12 27 -20 4 -11 0
-13 -22 -7 -15 5 -51 7 -79 6 -49 -2 -70 8 -40 20 17 8 88 8 114 1z m673 -39
c0 -13 -31 -15 -215 -15 -196 0 -228 4 -208 23 3 4 100 7 215 7 178 0 208 -2
208 -15z m-1282 -58 c2 -37 -1 -49 -14 -54 -20 -8 -116 16 -126 31 -10 14 -10
61 -1 70 4 4 37 6 73 4 l65 -3 3 -48z m584 28 c8 -18 8 -28 -1 -39 -7 -8 -10
-19 -7 -25 8 -12 -18 -21 -65 -21 l-39 0 0 55 0 55 50 0 c44 0 52 -3 62 -25z
m-1023 -38 c11 -33 10 -40 -7 -65 -39 -56 -55 -98 -66 -181 l-11 -86 -57 -3
-58 -3 0 41 c0 55 18 95 70 155 24 27 49 65 57 85 27 69 48 109 53 102 3 -4
12 -24 19 -45z m881 3 l0 -50 -189 0 c-187 0 -189 0 -195 23 -3 12 -6 34 -6
50 l0 27 195 0 195 0 0 -50z m183 37 c7 4 8 0 4 -11 -4 -10 -7 -22 -7 -27 0
-5 -4 -9 -10 -9 -5 0 -10 15 -9 33 0 17 3 26 6 19 2 -6 10 -9 16 -5z m707 -52
c0 -13 -37 -15 -275 -15 -238 0 -275 2 -275 15 0 13 37 15 275 15 238 0 275
-2 275 -15z m-6810 -50 c0 -8 -4 -15 -10 -15 -5 0 -10 7 -10 15 0 8 5 15 10
15 6 0 10 -7 10 -15z m5384 -1 c22 -22 21 -24 -19 -24 -28 0 -35 4 -35 20 0
24 32 27 54 4z m-534 -24 c0 -11 -7 -20 -15 -20 -8 0 -15 9 -15 20 0 11 7 20
15 20 8 0 15 -9 15 -20z m-5081 -26 c38 -4 60 -11 58 -18 -3 -8 -103 -13 -323
-16 -406 -6 -394 0 -394 -200 l0 -108 35 -46 c19 -26 35 -53 35 -62 0 -19
-102 -193 -137 -234 -30 -37 -29 -40 11 -40 61 0 82 16 162 125 l79 106 142
-3 c174 -4 196 -22 31 -25 -62 -2 -123 -5 -135 -8 -18 -4 -63 -57 -163 -191
-24 -32 -27 -33 -96 -34 l-71 0 7 38 c10 51 30 94 88 186 l50 80 -33 43 c-38
50 -51 129 -40 241 10 95 42 140 115 163 31 9 494 11 579 3z m3655 -3 c10 -16
-5 -41 -25 -41 -19 0 -27 29 -12 43 9 10 31 9 37 -2z m3016 -63 c0 -9 -30 -38
-40 -38 -41 0 -51 34 -23 76 l16 25 23 -28 c13 -15 23 -31 24 -35z m-7990 42
c0 -5 -7 -10 -15 -10 -8 0 -15 5 -15 10 0 6 7 10 15 10 8 0 15 -4 15 -10z m39
-57 c-1 -52 -3 -62 -9 -41 -5 16 -7 36 -5 45 2 10 4 28 4 41 1 12 3 22 6 22 3
0 5 -30 4 -67z m1711 -353 l0 -420 -25 0 -25 0 3 420 2 420 23 0 22 0 0 -420z
m-120 36 l0 -373 -24 4 c-18 4 -22 10 -19 24 3 11 9 22 14 25 5 3 9 12 9 21 0
13 -5 12 -25 -7 -14 -13 -25 -34 -25 -47 0 -20 -5 -23 -35 -23 -34 0 -35 1
-36 38 0 20 -2 189 -5 375 l-5 337 76 0 75 0 0 -374z m5594 352 c21 -30 20
-45 -4 -58 -25 -13 -60 3 -60 27 0 17 28 53 41 53 4 0 15 -10 23 -22z m1371
12 l50 -7 -43 -2 c-34 -1 -44 -6 -53 -25 -19 -41 -99 -41 -118 0 -10 24 -16
26 -66 22 -30 -1 -55 0 -55 4 0 15 206 21 285 8z m-8145 -19 c0 -5 -19 -20
-42 -34 -24 -13 -126 -75 -228 -137 -252 -154 -297 -180 -309 -180 -33 0 6 30
162 121 94 56 206 123 247 149 152 96 170 104 170 81z m6225 -21 c0 -27 -22
-39 -31 -16 -8 22 3 49 19 43 6 -2 12 -14 12 -27z m143 3 c4 -25 -16 -31 -36
-11 -20 20 -14 40 11 36 14 -2 23 -11 25 -25z m-6818 7 c0 -5 -7 -7 -15 -4 -8
4 -15 8 -15 10 0 2 7 4 15 4 8 0 15 -4 15 -10z m75 0 c3 -5 1 -10 -4 -10 -6 0
-11 5 -11 10 0 6 2 10 4 10 3 0 8 -4 11 -10z m488 -20 c-3 -11 -9 -20 -14 -20
-10 0 -12 33 -3 43 12 12 22 -3 17 -23z m7152 11 c62 -28 91 -70 109 -153 6
-25 3 -28 -19 -28 -21 0 -26 6 -31 43 -5 28 -18 52 -39 73 -26 27 -41 33 -99
39 -84 9 -182 0 -212 -20 -29 -19 -46 -49 -54 -95 -5 -33 -8 -35 -45 -35 -34
0 -40 -3 -43 -22 -3 -22 0 -23 56 -23 57 0 60 1 72 30 7 17 21 35 31 40 23 13
230 13 262 1 14 -6 29 -23 35 -40 10 -29 14 -31 63 -31 l52 0 -7 40 c-6 38 -5
40 19 40 23 0 25 -3 25 -50 0 -43 3 -50 20 -50 11 0 20 4 20 10 0 5 47 11 107
12 74 2 108 7 111 16 3 9 -23 12 -108 12 -110 0 -111 0 -108 23 3 21 7 22 113
22 l110 0 8 -85 c4 -47 6 -312 5 -588 l-3 -504 -24 -19 c-34 -28 -41 -24 -41
21 0 22 -4 40 -10 40 -10 0 -15 -27 -12 -62 1 -12 -5 -18 -18 -18 -16 0 -20 7
-20 34 0 19 -4 38 -10 41 -6 4 -10 -10 -10 -34 0 -52 -25 -56 -34 -6 -4 19
-12 35 -18 35 -7 0 -9 -13 -5 -35 5 -30 3 -35 -14 -35 -13 0 -19 7 -19 23 0
12 -4 28 -9 36 -13 20 -24 -4 -17 -35 5 -19 3 -24 -14 -24 -14 0 -20 7 -20 23
0 12 -5 29 -10 37 -7 11 -10 5 -10 -22 0 -34 -3 -38 -25 -38 -22 0 -25 4 -25
35 0 19 -4 35 -10 35 -5 0 -10 -16 -10 -35 0 -43 -27 -49 -36 -7 -10 47 -12
48 -13 10 l-1 -38 -360 0 -360 0 0 25 c0 14 -5 25 -11 25 -7 0 -9 -10 -4 -27
5 -23 4 -26 -7 -15 -19 19 -25 1192 -6 1204 15 9 132 11 175 2 28 -5 29 -8 31
-70 l3 -64 -75 0 c-61 0 -76 -3 -76 -15 0 -13 24 -15 160 -15 136 0 160 2 160
15 0 12 -13 15 -60 15 l-60 0 0 70 0 70 29 0 c17 0 33 -5 37 -11 3 -6 14 12
24 41 34 100 89 129 245 129 76 1 109 -4 140 -18z m-7598 -23 c-3 -8 -6 -5 -6
6 -1 11 2 17 5 13 3 -3 4 -12 1 -19z m8303 1 c0 -5 -12 -9 -26 -9 -36 0 -61
-16 -79 -51 -14 -25 -15 -75 -13 -344 3 -276 5 -316 19 -331 14 -13 40 -16
150 -17 150 0 177 5 187 36 4 12 7 162 7 334 l0 311 -24 26 c-13 14 -39 29
-58 32 -46 9 -41 24 8 24 31 0 47 -6 69 -28 38 -38 41 -82 37 -467 -4 -338 -5
-345 -61 -365 -16 -5 -93 -10 -172 -10 l-143 0 -25 33 c-15 19 -26 40 -26 48
0 7 11 -3 25 -24 25 -36 28 -37 84 -37 40 0 61 4 64 13 10 26 -9 40 -42 32
-40 -9 -98 11 -113 38 -9 16 -14 113 -16 341 -3 275 -2 324 12 360 16 41 39
61 81 69 26 4 55 -3 55 -14z m-8420 1 c0 -5 -7 -10 -15 -10 -8 0 -15 5 -15 10
0 6 7 10 15 10 8 0 15 -4 15 -10z m109 -53 c1 -10 -6 -20 -15 -24 -17 -6 -34
12 -33 37 0 9 5 6 11 -7 12 -26 33 -32 24 -7 -3 9 -6 22 -6 30 0 8 -6 11 -15
8 -8 -4 -15 -1 -15 4 0 6 8 12 18 14 17 4 29 -17 31 -55z m-111 17 c6 3 13 2
16 -3 7 -11 -22 -23 -35 -15 -5 3 -9 13 -9 22 0 14 2 14 9 3 5 -7 13 -11 19
-7z m148 -12 c-17 -16 -18 -16 -5 5 7 12 15 20 18 17 3 -2 -3 -12 -13 -22z
m1092 11 c3 -10 -50 -13 -242 -13 -225 0 -259 3 -239 24 4 3 112 5 242 4 177
-2 235 -6 239 -15z m92 -4 c0 -5 -18 -9 -40 -9 -28 0 -38 4 -34 13 5 15 74 11
74 -4z m-765 -86 c-4 -54 -9 -100 -11 -102 -2 -2 -4 41 -4 97 0 67 4 102 11
102 8 0 9 -29 4 -97z m8062 74 c14 -14 18 -44 21 -173 l4 -156 -49 26 -50 25
0 -45 c0 -76 -19 -74 -27 3 -5 51 -3 78 8 105 27 64 -17 131 -74 113 -39 -12
-53 -97 -21 -136 15 -18 17 -29 9 -49 -5 -14 -10 -52 -10 -85 0 -59 0 -59 -14
-30 -7 17 -13 51 -14 78 l0 47 -40 -20 c-21 -11 -42 -20 -45 -20 -3 0 -5 65
-5 145 0 143 0 146 26 172 25 25 27 25 145 21 95 -3 123 -8 136 -21z m-8584
-32 c-7 -21 -13 -19 -13 6 0 11 4 18 10 14 5 -3 7 -12 3 -20z m4141 -7 c20
-29 20 -47 -1 -70 -33 -36 -83 -13 -83 38 0 23 29 54 51 54 10 0 25 -10 33
-22z m2654 -19 c3 -21 -3 -26 -42 -37 -24 -6 -57 -22 -73 -36 l-28 -24 0 -181
c0 -166 -1 -181 -17 -181 -17 0 -18 15 -18 184 0 173 1 185 23 217 22 33 120
93 142 86 5 -2 11 -15 13 -28z m-6416 -356 c3 -202 3 -375 0 -385 -3 -13 -14
-18 -43 -18 l-39 0 0 374 0 374 28 10 c15 6 32 11 38 11 8 1 13 -106 16 -366z
m728 342 c0 -13 -29 -15 -205 -15 -176 0 -205 2 -205 15 0 13 29 15 205 15
176 0 205 -2 205 -15z m230 -10 c0 -12 -13 -15 -61 -15 l-60 0 3 -42 3 -42 53
3 c42 2 52 -1 52 -13 0 -12 -11 -16 -45 -16 -33 0 -51 -6 -67 -22 -67 -69 -64
-68 -275 -68 -165 0 -193 2 -193 15 0 13 26 15 175 15 245 0 265 10 265 134
l0 66 75 0 c60 0 75 -3 75 -15z m3576 -36 c66 -13 76 -19 66 -36 -5 -9 -19 -9
-47 -3 -55 13 -157 12 -211 -1 -47 -12 -66 -7 -46 13 14 14 98 36 143 37 20 1
62 -4 95 -10z m-4646 -354 l0 -345 -45 0 -45 0 0 330 0 330 38 19 c20 10 40
17 44 15 4 -3 7 -160 8 -349z m4266 342 c17 -17 -17 -22 -145 -19 -120 3 -141
5 -141 19 0 14 17 15 140 11 77 -2 142 -7 146 -11z m1968 -13 c3 -9 6 -35 6
-59 0 -51 -13 -57 -102 -48 -63 6 -81 19 -54 38 12 9 15 22 12 49 l-5 36 68 0
c54 0 70 -4 75 -16z m-5417 -20 c7 -20 -19 -22 -195 -16 -137 4 -172 8 -172
19 0 11 33 13 182 11 123 -2 183 -7 185 -14z m5206 -11 c-15 -23 -19 -55 -21
-205 -4 -183 -14 -229 -25 -110 -16 163 -4 278 33 318 30 31 35 31 13 -3z
m512 4 c3 -12 4 -190 3 -396 -2 -289 -6 -375 -15 -379 -10 -3 -13 58 -13 281
0 333 -8 499 -24 494 -6 -2 -12 -16 -14 -30 -3 -21 -9 -27 -26 -27 -21 0 -35
21 -36 53 0 12 36 23 80 24 33 2 41 -2 45 -20z m-6657 -386 l-3 -256 -42 -3
-43 -3 0 280 c0 155 -1 284 -2 289 0 4 17 17 38 29 l39 22 8 -51 c4 -28 6
-167 5 -307z m4260 344 c185 -44 339 -193 387 -376 19 -71 19 -210 -1 -284
-38 -147 -157 -281 -303 -340 -200 -82 -420 -37 -572 114 -213 212 -213 538 0
750 127 126 311 178 489 136z m508 -58 c13 -12 1 -15 -83 -19 -59 -2 -83 0
-83 9 0 6 6 14 13 17 17 8 144 2 153 -7z m1824 -44 c0 -32 3 -91 7 -130 l6
-73 -31 0 c-39 0 -43 8 -36 64 5 37 11 46 26 46 11 0 16 5 13 10 -3 6 -15 10
-26 10 -10 0 -19 7 -19 15 0 14 12 19 33 16 4 0 7 10 7 23 0 16 -7 27 -20 31
-37 12 -22 42 23 44 14 1 17 -8 17 -56z m1707 -50 c-2 -21 -4 -4 -4 37 0 41 2
58 4 38 2 -21 2 -55 0 -75z m-8418 -200 l1 -253 -45 0 -45 0 0 250 0 249 38
26 37 25 7 -22 c3 -13 6 -137 7 -275z m6485 246 c9 -44 7 -1102 -2 -1115 -4
-6 -37 -12 -74 -12 l-68 -1 0 34 c0 32 -2 35 -30 35 -16 0 -30 5 -30 10 0 6
14 13 30 17 36 7 40 23 6 23 -35 0 -42 18 -9 22 39 4 42 28 4 28 -17 0 -31 5
-31 10 0 6 14 10 30 10 20 0 30 5 30 15 0 10 -10 15 -30 15 -16 0 -30 5 -30
10 0 6 14 10 31 10 24 0 30 4 27 18 -2 10 -14 18 -31 20 -37 4 -35 22 3 22 40
0 38 18 -2 23 l-33 3 33 8 c38 10 43 26 8 26 -37 0 -40 17 -6 29 39 13 39 31
-1 31 -17 0 -28 4 -24 10 3 6 17 10 31 10 15 0 24 6 24 15 0 10 -10 15 -30 15
-16 0 -30 4 -30 9 0 5 14 11 30 15 39 7 39 26 -1 26 -17 0 -28 4 -24 10 3 6
17 10 31 10 34 0 30 17 -8 34 l-33 14 33 7 c40 9 41 21 2 30 -16 4 -30 10 -30
15 0 4 14 10 30 14 17 3 30 10 30 16 0 5 -13 10 -30 10 -16 0 -30 5 -30 10 0
6 14 10 31 10 38 0 35 24 -4 28 -33 4 -26 22 9 22 31 0 31 18 -1 26 -35 9 -31
24 6 24 40 0 34 20 -12 36 -33 12 -33 15 5 18 34 2 31 26 -3 26 -17 0 -31 4
-31 9 0 5 14 8 30 6 21 -3 30 0 30 10 0 9 -10 15 -26 15 -34 0 -26 24 9 28 38
5 33 20 -8 28 -38 7 -38 24 1 24 13 0 24 5 24 10 0 6 -11 10 -25 10 -14 0 -25
5 -25 10 0 6 11 10 25 10 15 0 25 6 25 14 0 8 -11 17 -25 20 -14 4 -25 11 -25
16 0 6 11 10 25 10 14 0 25 5 25 10 0 6 -8 10 -17 10 -10 0 -25 5 -33 11 -12
8 -9 10 13 6 29 -5 38 9 10 16 -10 3 23 5 73 6 l92 1 6 -31z m-5217 -15 c8
-21 -13 -42 -28 -27 -13 13 -5 43 11 43 6 0 13 -7 17 -16z m3571 -77 c4 -20
-25 -34 -40 -19 -15 15 -1 44 19 40 10 -2 19 -11 21 -21z m3613 -20 c-10 -9
-11 -8 -5 6 3 10 9 15 12 12 3 -3 0 -11 -7 -18z m128 -152 c0 -33 -3 -66 -8
-74 -7 -12 -41 -15 -157 -15 l-148 -1 -8 40 c-5 22 -7 75 -6 118 l3 79 77 -56
78 -56 51 38 c28 20 63 47 78 59 l26 21 7 -46 c3 -26 7 -74 7 -107z m-7291
116 c20 -12 11 -42 -14 -52 -26 -9 -66 15 -58 36 8 21 50 30 72 16z m1757 -22
c0 -7 -8 -15 -17 -17 -18 -3 -25 18 -11 32 10 10 28 1 28 -15z m1890 -189 c0
-124 -4 -185 -11 -187 -12 -4 -29 351 -18 369 3 5 11 7 17 5 9 -3 12 -57 12
-187z m-3815 165 c0 -12 -19 -15 -110 -15 -91 0 -110 3 -110 15 0 12 19 15
110 15 91 0 110 -3 110 -15z m2388 -72 c3 -17 -3 -24 -22 -29 -37 -9 -56 2
-56 31 0 24 3 26 38 23 29 -2 38 -7 40 -25z m3122 -318 c0 -338 0 -345 -20
-345 -20 0 -20 7 -20 345 0 338 0 345 20 345 20 0 20 -7 20 -345z m88 3 l-3
-343 -30 0 -30 0 -3 343 -2 342 35 0 35 0 -2 -342z m-5590 275 c-2 -20 -9 -28
-23 -28 -23 0 -33 34 -13 46 26 17 39 10 36 -18z m150 1 c-5 -29 -35 -41 -54
-22 -22 21 -10 38 27 38 23 0 30 -4 27 -16z m1910 0 c49 -14 15 -44 -50 -44
-30 0 -43 13 -34 35 6 15 44 19 84 9z m166 0 c9 -3 16 -12 16 -20 0 -10 -15
-14 -60 -14 -45 0 -60 3 -60 14 0 18 73 32 104 20z m274 -30 c4 -27 -23 -38
-43 -18 -12 13 -13 19 -4 30 17 20 43 13 47 -12z m-2085 0 c83 -14 15 -44
-100 -44 -29 0 -33 3 -33 25 0 23 3 25 48 25 26 0 64 -3 85 -6z m1962 -39 c0
-27 -3 -30 -37 -33 -35 -3 -38 -1 -38 22 0 28 24 47 55 43 15 -1 20 -9 20 -32z
m-1929 -80 c3 -19 3 -46 0 -60 -6 -23 -11 -25 -66 -25 l-60 0 0 60 0 60 60 0
59 0 7 -35z m-350 -36 c27 -28 41 -89 30 -133 -5 -21 -13 -26 -36 -26 -29 0
-30 2 -30 43 0 78 1 78 -220 75 l-195 -3 -9 -62 c-9 -60 -11 -63 -37 -63 -33
0 -43 30 -33 99 7 48 26 78 59 92 11 4 116 7 232 6 l213 -2 26 -26z m2434 -4
c0 -13 -28 -15 -190 -15 -162 0 -190 2 -190 15 0 13 28 15 190 15 162 0 190
-2 190 -15z m-490 -14 c0 -19 -23 -35 -34 -24 -14 15 -5 43 14 43 13 0 20 -7
20 -19z m-2630 -31 c0 -13 -7 -20 -20 -20 -13 0 -20 7 -20 20 0 13 7 20 20 20
13 0 20 -7 20 -20z m7850 -45 c0 -16 -6 -25 -15 -25 -9 0 -15 9 -15 25 0 16 6
25 15 25 9 0 15 -9 15 -25z m-4830 -78 c0 -106 -30 -156 -93 -157 -58 0 -97
74 -97 183 l0 57 95 0 95 0 0 -83z m108 61 c-5 -13 -57 -30 -70 -22 -4 3 -8
12 -8 20 0 10 12 14 41 14 27 0 39 -4 37 -12z m4873 -9 c14 -14 18 -27 13 -42
-10 -35 -19 -39 -64 -27 -39 10 -41 13 -35 38 14 55 49 68 86 31z m-5201 -5
c0 -16 -16 -16 -118 -4 -2 0 0 5 3 10 3 6 31 10 61 10 43 0 54 -3 54 -16z
m4910 -34 c0 -11 -7 -20 -15 -20 -15 0 -21 21 -8 33 12 13 23 7 23 -13z
m-8040 -149 c0 -88 -3 -166 -6 -175 -16 -43 -24 -4 -24 122 0 77 -5 144 -11
152 -7 10 -9 -63 -7 -238 l3 -254 -28 -24 c-36 -31 -62 -30 -92 1 l-25 24 7
234 c3 129 3 242 0 251 -4 9 -13 13 -22 10 -12 -5 -15 -30 -15 -150 0 -121 -2
-144 -15 -144 -13 0 -15 25 -15 168 0 93 3 172 7 175 3 4 60 7 125 7 l118 0 0
-159z m368 129 c65 0 72 -2 72 -20 0 -20 7 -20 345 -20 317 0 345 1 355 18 8
12 13 13 16 5 7 -17 24 -16 24 1 0 10 30 15 134 21 155 8 188 3 216 -32 19
-25 20 -40 20 -504 0 -466 -1 -480 -20 -499 -20 -20 -33 -20 -667 -20 -357 0
-658 3 -670 6 -12 4 -26 19 -32 36 -17 47 -15 935 2 968 17 34 55 52 97 45 19
-2 68 -5 108 -5z m7945 -47 c4 -2 7 -18 7 -34 0 -31 0 -31 -42 -24 -54 9 -69
23 -57 53 8 20 13 22 46 16 21 -4 41 -9 46 -11z m-263 -34 c0 -26 -3 -30 -22
-27 -30 4 -39 54 -11 60 27 6 33 0 33 -33z m-3516 -18 l27 -28 -57 -51 -57
-51 -18 24 c-11 13 -19 26 -19 30 0 8 83 104 91 105 3 0 18 -13 33 -29z
m-1388 -6 c18 -13 17 -14 -18 -15 -27 0 -38 4 -38 15 0 19 30 19 56 0z m284 5
c0 -11 -7 -14 -55 -25 -29 -6 -29 -6 -11 14 20 22 66 29 66 11z m4610 -83 c0
-23 -5 -49 -10 -57 -7 -11 -10 4 -10 48 0 40 4 61 10 57 6 -3 10 -25 10 -48z
m236 37 c38 -11 54 -20 54 -33 0 -18 -38 -156 -71 -258 -22 -67 -45 -86 -36
-30 3 17 21 89 40 160 l34 127 -23 0 c-25 0 -30 -9 -15 -25 8 -9 -54 -243 -73
-273 -10 -17 -30 -15 -55 6 l-20 17 39 152 c21 84 41 157 45 163 8 13 17 13
81 -6z m-4708 -26 c4 -19 -35 -35 -50 -20 -6 6 -8 18 -4 27 8 21 50 16 54 -7z
m-188 -3 c0 -12 -19 -15 -115 -15 -96 0 -115 3 -115 15 0 12 19 15 115 15 96
0 115 -3 115 -15z m1320 -110 c63 -70 119 -137 124 -150 21 -55 -27 -107 -85
-92 -20 5 -125 115 -235 246 l-28 34 48 43 c26 24 51 44 55 44 3 0 58 -56 121
-125z m-1312 -22 c-4 -20 -36 -28 -57 -14 -21 13 -4 31 30 31 24 0 30 -4 27
-17z m152 8 c0 -11 -28 -41 -39 -41 -12 0 -31 23 -31 37 0 8 13 13 35 13 19 0
35 -4 35 -9z m167 -5 c10 -10 0 -15 -45 -22 -39 -6 -42 -5 -42 16 0 21 3 22
41 17 22 -3 43 -8 46 -11z m2766 -34 l47 -4 0 -166 c0 -132 -4 -184 -20 -250
-11 -46 -20 -89 -20 -97 0 -8 -5 -26 -11 -42 -10 -26 -11 -27 -19 -7 -27 69
-78 531 -63 570 3 10 11 13 22 8 9 -4 37 -9 64 -12z m-2536 -54 c30 -28 29
-52 -3 -77 -29 -23 -51 -17 -79 22 -15 21 -14 23 15 50 37 33 38 33 67 5z
m-123 -21 c15 -11 15 -15 4 -24 -26 -21 -66 -24 -83 -6 -16 16 -16 17 1 30 23
17 55 17 78 0z m551 4 c-20 -19 -167 -41 -270 -41 l-105 0 0 25 0 25 192 0
c117 0 188 -4 183 -9z m3661 -6 c10 -25 -7 -40 -23 -20 -7 11 -13 22 -13 27 0
14 30 9 36 -7z m-4386 -10 c0 -11 -11 -15 -40 -15 -38 0 -49 8 -33 23 3 4 21
7 40 7 23 0 33 -5 33 -15z m3208 -17 l3 -28 -80 0 c-79 0 -81 0 -81 -25 0 -32
26 -45 94 -45 43 0 56 -3 56 -15 0 -12 -18 -15 -105 -15 l-105 0 0 64 c0 91 9
97 124 94 l91 -3 3 -27z m989 15 c40 -24 44 -63 41 -401 -2 -252 -6 -322 -17
-335 -11 -14 -36 -17 -160 -17 l-146 0 3 167 c4 205 3 213 -43 213 l-35 0 0
-190 0 -190 -198 0 c-190 0 -200 1 -218 21 -18 20 -19 39 -16 353 3 364 4 367
65 385 49 15 697 9 724 -6z m-1717 -13 c0 -5 -11 -10 -25 -10 -14 0 -25 5 -25
10 0 6 11 10 25 10 14 0 25 -4 25 -10z m720 -50 c0 -5 -4 -10 -10 -10 -5 0
-10 5 -10 10 0 6 5 10 10 10 6 0 10 -4 10 -10z m1182 -39 c-2 -23 -8 -41 -13
-41 -10 0 -12 73 -3 83 14 13 20 -3 16 -42z m-1752 25 c0 -18 -63 -29 -140
-24 -43 2 -56 7 -58 21 -3 15 7 17 97 17 81 0 101 -3 101 -14z m1897 -20 c6
-5 -84 -287 -95 -298 -6 -6 -18 -8 -27 -5 -18 7 -18 3 28 190 l31 129 30 -6
c16 -4 31 -8 33 -10z m-6459 -58 c-5 -32 -28 -35 -28 -4 0 17 5 26 16 26 10 0
14 -7 12 -22z m4427 -7 c3 -5 1 -12 -5 -16 -5 -3 -10 1 -10 9 0 18 6 21 15 7z
m715 -505 c0 -271 -3 -508 -6 -525 l-6 -31 -104 0 -104 0 0 525 0 525 110 0
110 0 0 -494z m-6886 416 c5 -9 -29 -52 -42 -52 -5 0 -17 9 -27 20 -17 19 -17
20 6 39 23 18 49 16 63 -7z m1738 -22 c-5 -61 -22 -56 -22 6 0 28 4 44 13 44
8 0 11 -15 9 -50z m4538 -95 l0 -135 -80 0 -80 0 0 135 0 135 80 0 80 0 0
-135z m-4394 -5 c19 -27 43 -52 53 -55 9 -3 33 -22 53 -43 90 -91 69 -234 -42
-289 -158 -80 -317 83 -239 244 23 48 62 80 108 89 17 4 31 8 31 11 0 2 -9 21
-20 43 -25 48 -25 50 0 50 13 0 33 -19 56 -50z m-1769 8 c12 -28 7 -45 -18
-58 -23 -13 -59 3 -59 26 0 51 58 74 77 32z m7971 -85 c21 -5 23 -10 18 -37
-8 -40 -56 -136 -69 -136 -5 0 -7 15 -4 33 3 17 9 58 13 90 3 31 9 57 13 57 3
0 17 -3 29 -7z m-1808 -118 c0 -12 -15 -15 -75 -15 -60 0 -75 3 -75 15 0 12
15 15 75 15 60 0 75 -3 75 -15z m285 0 c0 -6 -39 -11 -91 -13 -77 -2 -91 0
-91 13 0 13 14 15 91 13 52 -2 91 -7 91 -13z m-118 -100 c21 -9 45 -23 55 -32
58 -53 -34 -163 -137 -163 -37 0 -95 24 -95 39 0 5 33 10 74 13 79 4 116 23
116 59 0 24 -42 55 -85 63 -21 4 -35 13 -35 21 0 20 60 20 107 0z m-4296 -85
c19 -89 17 -111 -9 -121 -17 -6 -27 -4 -42 11 -25 25 -25 45 0 70 14 14 20 33
20 67 0 60 16 47 31 -27z m-1101 10 c0 -23 -13 -32 -34 -24 -21 8 -20 31 1 43
22 12 33 5 33 -19z m5331 19 c33 -17 11 -29 -53 -29 -55 0 -63 -3 -93 -33 -64
-64 -53 -162 26 -215 28 -19 43 -23 83 -19 42 4 55 10 88 46 40 42 52 48 63
31 12 -19 -26 -70 -72 -96 -85 -50 -171 -32 -237 49 -28 35 -31 46 -31 107 0
76 16 107 75 148 36 24 116 30 151 11z m-6034 -15 c2 -7 -22 -12 -72 -13 -73
-2 -100 3 -91 17 7 12 159 8 163 -4z m858 -14 c0 -18 -6 -26 -23 -28 -24 -4
-38 18 -28 44 3 9 15 14 28 12 17 -2 23 -10 23 -28z m385 17 c0 -20 -9 -25
-31 -20 -28 8 -24 33 6 33 14 0 25 -6 25 -13z m-90 -7 c0 -6 -32 -10 -75 -10
-43 0 -75 4 -75 10 0 6 32 10 75 10 43 0 75 -4 75 -10z m-771 -26 c10 -22 16
-25 44 -21 24 3 40 -2 64 -20 47 -34 59 -61 37 -78 -16 -11 -16 -17 -6 -39 6
-14 18 -26 26 -26 21 0 29 -34 21 -86 -5 -35 -11 -45 -30 -50 -31 -8 -49 -56
-29 -76 13 -12 9 -18 -28 -42 -37 -24 -43 -26 -54 -12 -17 24 -50 19 -69 -10
-15 -23 -21 -25 -53 -19 -21 4 -42 8 -49 8 -6 0 -16 11 -22 25 -10 21 -16 23
-45 18 -31 -6 -37 -3 -64 30 -28 33 -29 39 -17 57 17 25 3 57 -25 57 -18 0
-20 7 -20 55 0 49 3 57 24 64 27 11 41 40 26 55 -18 18 -11 41 23 74 30 29 35
31 53 17 18 -12 24 -12 42 1 12 8 22 22 22 30 0 10 14 14 58 14 54 0 60 -2 71
-26z m-401 -72 c3 -16 -2 -22 -17 -22 -24 0 -35 15 -27 36 9 23 40 13 44 -14z
m2022 -7 c0 -12 -15 -15 -79 -15 -61 0 -80 3 -85 15 -4 13 8 15 79 15 69 0 85
-3 85 -15z m-1110 -76 c0 -3 -13 -15 -29 -26 l-28 -22 -27 28 -27 28 27 33 28
32 28 -33 c15 -19 28 -37 28 -40z m150 61 c0 -5 -11 -10 -25 -10 -14 0 -42 -7
-63 -15 l-37 -15 28 25 c28 25 97 36 97 15z m564 -15 c7 -20 -4 -47 -17 -42
-6 2 -15 11 -21 20 -8 13 -7 20 4 27 21 13 27 12 34 -5z m5904 -17 c3 -16 -7
-18 -97 -18 l-101 0 17 -27 c9 -16 30 -42 46 -60 27 -28 29 -37 24 -76 -16
-113 -42 -132 -182 -132 -135 0 -170 24 -189 126 l-6 36 -83 6 c-45 4 -115 7
-154 7 -58 0 -73 3 -73 15 0 13 26 15 170 15 l170 0 0 -29 c0 -39 19 -92 43
-118 19 -21 29 -23 122 -23 95 0 103 2 125 25 18 19 23 36 24 84 1 53 -2 63
-29 92 -54 57 -69 59 -359 59 l-264 0 -26 -30 c-53 -64 -58 -159 -11 -206 21
-21 33 -24 103 -24 93 0 124 17 143 80 13 44 29 44 29 1 0 -43 -40 -94 -85
-109 -44 -15 -162 -10 -197 9 -44 24 -79 171 -44 185 19 7 28 30 31 78 2 21 9
42 17 47 7 5 197 8 423 6 381 -2 410 -3 413 -19z m-6779 -1 c15 -19 -10 -53
-33 -44 -19 7 -22 43 -3 50 20 9 24 8 36 -6z m517 -32 c6 -34 7 -35 58 -36 87
-1 91 -5 91 -92 l0 -77 -41 0 c-28 0 -47 -6 -59 -20 l-19 -21 -23 28 c-43 51
-55 83 -49 125 5 29 3 38 -8 38 -26 0 -66 -23 -66 -37 0 -7 19 -43 42 -79 47
-76 67 -125 68 -171 0 -27 -5 -34 -25 -39 -35 -9 -55 1 -56 28 -2 37 -16 -28
-18 -80 -1 -43 -1 -43 21 -28 12 9 39 16 60 16 38 0 38 0 38 -42 0 -54 11 -71
41 -66 18 2 25 12 32 41 5 21 14 40 21 42 6 2 23 6 38 9 35 8 65 40 90 94 18
40 18 45 2 102 -9 33 -14 75 -11 93 6 39 2 46 -35 70 -22 13 -28 25 -28 52 0
31 -3 35 -37 44 -21 5 -47 11 -57 13 -11 2 -21 9 -24 17 -12 36 172 -20 185
-56 3 -10 32 -43 64 -73 42 -41 60 -66 69 -99 16 -62 -2 -76 -29 -22 -25 47
-37 51 -53 16 -9 -19 -8 -29 6 -49 9 -14 16 -37 16 -51 0 -29 7 -31 34 -10 37
28 49 19 44 -33 -5 -56 -43 -143 -82 -189 -26 -31 -29 -32 -50 -18 -20 14 -25
14 -35 1 -7 -8 -16 -27 -20 -42 -6 -22 -19 -32 -67 -50 -70 -27 -179 -33 -187
-10 -4 9 2 17 14 21 11 4 18 9 15 12 -8 8 -108 42 -123 43 -17 0 -16 -15 2
-34 8 -8 15 -19 15 -25 0 -20 -37 -11 -64 16 l-27 26 -33 -32 c-27 -26 -38
-31 -60 -25 -20 5 -35 1 -56 -15 -36 -26 -50 -27 -50 -1 0 14 -17 28 -59 49
-101 52 -171 155 -171 256 0 49 26 126 61 178 35 54 50 58 74 21 13 -21 22
-25 43 -19 15 3 32 13 38 21 6 7 16 14 23 14 6 0 11 5 11 12 0 6 3 9 6 6 3 -3
0 -15 -7 -26 -20 -32 -4 -56 33 -48 46 9 78 56 38 56 -29 0 -25 13 25 71 59
69 100 96 120 79 12 -10 20 -9 42 5 33 22 69 33 110 34 29 1 33 -2 39 -34z
m544 -135 c0 -143 -1 -150 -20 -150 -19 0 -20 7 -20 150 0 143 1 150 20 150
19 0 20 -7 20 -150z m470 90 c11 -20 8 -20 -162 -20 -95 0 -180 -5 -188 -10
-13 -8 -14 -42 -12 -232 3 -154 7 -225 15 -230 7 -5 98 -7 202 -5 l190 2 -3
35 -3 35 41 -40 c46 -45 51 -41 16 13 -22 35 -24 49 -29 215 l-5 177 29 0 c47
0 52 -26 43 -277 l-7 -223 -251 0 c-138 0 -257 4 -264 9 -10 6 -13 65 -13 272
1 256 2 265 22 282 18 15 44 17 195 17 163 0 174 -1 184 -20z m-197 -109 c4
-1 7 -8 7 -16 0 -11 -12 -15 -45 -15 -32 0 -45 4 -45 14 0 18 18 25 50 21 14
-2 28 -4 33 -4z m55 -13 c-6 -18 -25 -20 -31 -3 -5 10 0 15 14 15 12 0 19 -5
17 -12z m132 -3 c0 -11 -12 -15 -49 -15 -34 0 -51 4 -55 15 -4 12 5 15 49 15
42 0 55 -3 55 -15z m3483 -38 c8 -12 31 -31 51 -42 44 -24 50 -50 9 -40 -39 9
-97 58 -101 84 -4 28 21 28 41 -2z m466 -43 c30 -39 27 -64 -4 -30 -32 34 -71
35 -87 1 -14 -30 -28 -33 -28 -5 0 57 83 80 119 34z m-3651 -21 c-2 -10 -10
-18 -18 -18 -8 0 -16 8 -18 18 -2 12 3 17 18 17 15 0 20 -5 18 -17z m-1111
-15 c28 -26 29 -43 3 -85 -35 -58 -99 -53 -125 10 -14 33 -11 52 13 80 22 25
80 22 109 -5z m818 2 c0 -12 -23 -15 -137 -18 -128 -2 -138 -1 -138 16 0 17
11 18 138 17 115 0 137 -2 137 -15z m-475 -40 c0 -5 -4 -10 -10 -10 -5 0 -10
5 -10 10 0 6 5 10 10 10 6 0 10 -4 10 -10z m2688 -12 c-5 -34 -38 -37 -38 -4
0 20 5 26 21 26 15 0 20 -5 17 -22z m-1567 -25 c6 -16 3 -29 -10 -45 -16 -20
-22 -21 -45 -10 -28 13 -35 49 -14 70 19 19 60 10 69 -15z m-123 -48 c6 -46
19 -55 82 -55 62 0 76 9 89 57 7 26 11 28 69 31 l62 3 0 -43 c0 -95 16 -88
-226 -88 l-214 0 0 58 c0 32 3 62 7 66 4 4 34 6 68 4 59 -3 60 -4 63 -33z
m812 -26 c6 -22 14 -47 17 -55 3 -9 -2 -14 -13 -15 -11 0 -14 -3 -6 -6 19 -7
18 -1523 -2 -1523 -7 0 -18 6 -23 12 -6 8 -9 311 -7 789 1 686 5 839 19 839 3
0 9 -18 15 -41z m2645 31 l660 -1 -56 -52 c-30 -29 -137 -114 -237 -189 l-181
-136 -22 45 c-30 62 -74 110 -123 135 -57 30 -165 30 -222 1 -54 -29 -110 -88
-131 -139 l-18 -42 -65 46 c-134 94 -349 262 -374 292 -40 48 -35 54 42 47 37
-4 364 -7 727 -7z m-1953 -20 c20 -6 49 -25 63 -42 25 -30 27 -37 23 -119 -4
-102 -20 -129 -94 -149 -60 -17 -204 -9 -238 13 -41 27 -60 74 -61 147 0 117
49 160 185 160 47 0 102 -5 122 -10z m1045 -3 c4 -5 8 -84 8 -175 l0 -167
-390 -3 c-253 -2 -403 1 -427 8 -48 14 -58 44 -58 181 0 116 9 155 37 162 31
9 821 3 830 -6z m-2727 -27 c0 -26 -4 -30 -26 -30 -31 0 -28 -23 3 -28 13 -2
24 -13 27 -28 l6 -24 249 0 250 0 3 23 c3 19 10 22 56 25 37 2 52 7 52 18 0
10 -14 14 -55 14 -54 0 -55 0 -55 30 l0 30 100 0 100 0 0 -610 0 -610 -419 0
-418 0 -7 31 c-14 73 -12 76 59 82 41 4 121 27 222 63 136 50 168 58 228 58
58 0 82 -6 135 -31 86 -41 110 -48 110 -31 0 8 -20 24 -45 36 -25 12 -49 32
-54 44 -4 12 -10 17 -14 11 -5 -8 -23 -6 -57 4 -29 8 -77 13 -110 11 -33 -1
-60 1 -60 5 0 4 21 30 46 57 26 28 43 50 38 50 -5 0 -32 -14 -61 -30 -43 -24
-54 -37 -62 -68 l-11 -38 -152 -47 c-148 -46 -247 -69 -203 -48 11 5 30 10 43
10 37 1 25 21 -13 21 -19 0 -35 5 -35 10 0 6 17 10 37 10 43 0 34 17 -11 22
-43 5 -44 26 -1 30 46 4 46 22 0 26 -52 5 -46 30 8 34 54 4 55 22 0 26 -34 3
-42 7 -45 25 -2 12 -2 208 0 435 l2 412 70 0 70 0 0 -30z m850 -630 l0 -660
-540 0 -540 0 0 93 c0 98 3 109 26 100 10 -4 14 -24 14 -74 l0 -69 494 0 494
0 7 133 c3 72 5 343 3 601 -2 364 -6 470 -15 474 -7 2 -13 17 -13 33 0 27 3
29 35 29 l35 0 0 -660z m-2980 620 c26 -26 25 -36 -5 -65 -29 -30 -39 -31 -65
-5 -24 24 -25 47 -3 72 21 24 48 23 73 -2z m6604 -1 c31 -25 32 -38 5 -73 -25
-32 -62 -34 -83 -4 -21 30 -20 54 4 78 25 25 41 25 74 -1z m-5349 -80 c11 -16
61 -63 110 -103 144 -117 155 -129 155 -171 l0 -37 -51 44 c-95 82 -214 168
-247 180 -18 7 -30 17 -28 23 3 5 11 29 18 53 7 23 15 42 18 42 3 0 14 -14 25
-31z m2145 -19 c41 -41 14 -130 -40 -130 -28 0 -70 47 -70 77 0 29 42 73 70
73 11 0 29 -9 40 -20z m1895 -190 c48 -36 99 -74 112 -85 l25 -20 -114 -78
-113 -78 -2 118 c-2 65 -5 128 -8 141 -8 34 -42 28 -117 -23 -37 -25 -69 -41
-71 -37 -2 4 -2 17 -1 30 1 12 2 71 3 132 l1 109 99 -72 c54 -40 138 -101 186
-137z m1067 98 c3 -110 0 -158 -11 -158 -4 0 -40 21 -80 47 -102 64 -105 61
-109 -101 -2 -115 -4 -126 -21 -126 -20 0 -112 59 -169 107 l-33 28 203 152
c112 84 206 152 210 153 3 0 8 -46 10 -102z m-602 -20 c82 -43 105 -138 52
-217 -71 -106 -164 -107 -235 -4 -52 76 -43 155 24 206 57 42 97 46 159 15z
m-5610 -23 c24 -29 -21 -60 -48 -33 -9 9 -8 16 5 30 20 22 27 22 43 3z m378
-17 c28 -28 -4 -62 -46 -51 -37 9 -21 63 18 63 9 0 21 -5 28 -12z m1152 -8 c0
-11 5 -20 10 -20 6 0 18 9 27 20 10 11 28 20 40 20 19 0 23 -5 23 -29 0 -29 0
-29 -67 -33 -93 -5 -103 -1 -103 33 0 26 3 29 35 29 28 0 35 -4 35 -20z m-410
-46 c56 -31 94 -73 105 -116 12 -48 -6 -52 -27 -7 -38 86 -67 99 -94 44 l-16
-35 -135 0 c-74 0 -143 -5 -154 -10 -47 -26 -3 72 52 112 74 55 181 60 269 12z
m-1002 -27 c3 -21 -1 -27 -17 -27 -27 0 -34 15 -21 40 15 28 34 21 38 -13z
m3172 -9 c75 -39 85 -61 88 -204 l4 -124 -56 0 -56 0 0 102 c0 80 -3 105 -17
120 -21 24 -48 23 -73 -2 -17 -17 -20 -33 -20 -120 l0 -100 -55 0 c-63 0 -57
-15 -55 140 1 118 17 155 80 188 24 12 60 22 80 22 20 0 56 -10 80 -22z
m-1658 -22 c2 -11 2 -40 0 -62 -3 -37 -7 -43 -34 -48 -17 -3 -57 -6 -89 -6
-46 0 -59 3 -59 15 0 8 8 16 18 16 16 1 16 2 0 6 -14 3 -18 15 -18 53 l0 48
89 0 c83 0 89 -2 93 -22z m-1034 -21 c4 -3 -46 -58 -110 -122 -100 -100 -120
-115 -137 -107 -25 12 -201 166 -201 176 0 13 27 9 87 -12 32 -11 59 -20 60
-20 2 0 3 9 3 20 0 15 -7 20 -27 20 -37 0 -73 10 -73 20 0 9 138 25 146 17 3
-3 8 -24 11 -46 8 -61 33 -55 33 8 l0 50 53 4 c60 5 147 0 155 -8z m1160 -14
c-2 -9 -10 -17 -19 -19 -20 -4 -34 28 -18 39 18 11 40 -1 37 -20z m1796 -23
c16 -61 3 -108 -29 -108 -18 0 -24 7 -29 39 -3 22 -2 51 4 65 12 33 45 35 54
4z m126 -4 c6 -14 7 -43 4 -65 -6 -36 -9 -40 -33 -37 -24 3 -26 8 -29 53 -3
38 1 52 14 62 25 19 33 16 44 -13z m142 -11 c21 -19 22 -33 6 -68 -13 -29 -34
-32 -60 -8 -22 20 -23 51 -1 75 20 22 31 23 55 1z m152 -15 c21 -30 20 -51 -3
-72 -15 -14 -24 -15 -40 -7 -35 19 -45 49 -26 77 19 30 49 31 69 2z m756 -30
c-75 -95 -271 -318 -279 -318 -4 0 -13 10 -19 23 l-11 22 0 -22 c-1 -30 -21
-40 -38 -18 -12 17 -13 15 -13 -23 0 -31 -4 -42 -15 -42 -11 0 -14 7 -10 23 6
27 -8 52 -24 42 -8 -4 -10 -18 -6 -36 5 -21 3 -29 -7 -29 -10 0 -13 9 -10 29
3 20 -1 30 -12 34 -20 8 -31 -14 -23 -43 3 -13 0 -20 -9 -20 -9 0 -14 11 -14
30 0 24 -4 30 -21 30 -17 0 -20 -5 -17 -32 2 -19 -2 -33 -10 -36 -18 -6 -5 99
15 115 17 13 9 33 -12 33 -9 0 -15 14 -17 37 -2 27 -8 39 -21 41 -18 4 -19 -4
-15 -112 1 -64 2 -116 1 -116 -1 0 -8 3 -17 6 -14 5 -16 32 -16 191 l0 185 29
29 29 29 302 0 302 0 -42 -52z m611 16 c18 -20 60 -54 92 -75 67 -47 75 -75
25 -84 -60 -11 -383 -1 -383 11 0 10 211 182 226 183 3 1 21 -15 40 -35z m653
-155 c-3 -5 -95 -9 -205 -9 l-199 0 0 28 c0 21 11 34 48 59 26 18 64 50 85 71
l39 40 119 -91 c65 -49 116 -94 113 -98z m-5394 26 c0 -139 -1 -145 -22 -159
-53 -33 -63 -30 -128 34 l-62 61 103 105 c57 57 104 104 106 104 2 0 3 -65 3
-145z m1006 75 l34 0 0 -346 0 -345 -27 -35 c-16 -18 -32 -34 -36 -34 -5 0 -7
32 -5 72 2 50 -1 73 -10 76 -9 3 -12 -13 -12 -56 0 -33 -3 -67 -6 -76 -10 -26
-24 -8 -25 32 0 30 -2 33 -9 17 -5 -11 -9 -32 -9 -47 -1 -35 -35 -39 -46 -5
-9 29 -18 735 -9 749 4 7 28 8 67 4 33 -3 75 -6 93 -6z m3174 -144 c0 -209 7
-201 -174 -201 -75 0 -136 1 -136 3 0 1 30 38 67 81 59 71 68 78 80 63 11 -15
12 -15 13 5 0 27 20 73 32 73 4 0 8 -13 8 -30 0 -32 14 -40 24 -14 3 9 6 29 6
46 0 20 13 48 37 79 20 27 38 49 40 49 2 0 3 -69 3 -154z m-3752 118 l61 -7
-27 -51 c-25 -49 -26 -60 -30 -233 -4 -179 -5 -183 -26 -183 -15 0 -17 -3 -8
-9 8 -4 14 -12 15 -17 1 -5 14 -9 30 -9 15 0 27 -2 27 -5 0 -15 -27 -30 -52
-30 -22 0 -35 10 -60 45 -33 46 -37 49 -99 59 l-37 6 -7 74 c-3 40 -5 126 -3
190 3 110 2 116 -20 131 -12 9 -22 23 -22 31 0 11 19 14 99 14 54 0 125 -3
159 -6z m172 -28 c0 -2 -16 -33 -35 -70 -31 -60 -35 -76 -35 -146 0 -75 -11
-108 -24 -74 -9 25 -7 145 4 184 10 36 64 110 81 110 5 0 9 -2 9 -4z m3720
-141 c0 -57 -4 -95 -10 -95 -6 0 -10 38 -10 95 0 57 4 95 10 95 6 0 10 -38 10
-95z m-4192 47 c-2 -10 -15 -18 -31 -20 -23 -3 -27 0 -27 22 0 13 6 26 13 29
19 7 49 -13 45 -31z m3272 17 c0 -5 -22 -9 -50 -9 -61 0 -67 18 -7 22 47 3 57
1 57 -13z m-132 -1 c-4 -10 -54 -14 -196 -16 -166 -2 -192 0 -192 13 0 13 27
15 196 15 152 0 195 -3 192 -12z m-55 -65 c70 -3 127 -9 127 -13 0 -10 -404
-20 -414 -10 -30 30 39 36 287 23z m1795 -23 c27 -25 28 -41 5 -68 -28 -32
-59 -36 -82 -13 -27 27 -27 66 1 85 30 21 50 20 76 -4z m-187 -100 c46 -46 38
-85 -26 -128 -27 -19 -53 -41 -56 -50 -14 -37 -92 -82 -141 -82 -28 0 -76 42
-83 73 -12 45 28 98 90 121 6 2 0 17 -12 34 -13 17 -23 34 -23 37 0 9 50 5 68
-6 14 -9 25 -7 52 10 51 30 95 27 131 -9z m-4087 -102 c-5 -16 -133 -134 -137
-127 -1 2 -12 18 -24 36 l-22 31 87 83 87 82 7 -44 c4 -24 5 -51 2 -61z m1948
85 c24 -22 23 -52 -4 -80 -27 -29 -43 -29 -73 2 -30 29 -31 35 -4 69 23 30 54
33 81 9z m368 -50 c27 -44 28 -49 13 -60 -15 -11 -12 -13 19 -13 36 0 48 -12
48 -48 0 -13 -10 -17 -43 -19 l-42 -2 -42 80 c-52 95 -53 109 -13 109 25 0 35
-8 60 -47z m203 21 c-20 -31 -90 -84 -110 -84 -13 0 -73 84 -73 102 0 4 45 8
100 8 l100 0 -17 -26z m1201 10 c8 -21 -11 -44 -35 -44 -19 0 -35 33 -24 50
10 16 52 12 59 -6z m-1172 -97 l-39 -84 -39 6 c-33 5 -39 11 -42 32 -2 21 2
28 20 32 13 4 48 31 78 62 30 30 56 51 58 46 2 -6 -14 -48 -36 -94z m1038 68
c0 -18 -5 -25 -20 -25 -15 0 -20 7 -20 25 0 18 5 25 20 25 15 0 20 -7 20 -25z
m-1831 -19 c15 -18 -2 -56 -23 -56 -25 0 -39 26 -26 49 13 24 33 27 49 7z
m1671 -21 c0 -13 -43 -15 -325 -15 -282 0 -325 2 -325 15 0 13 43 15 325 15
282 0 325 -2 325 -15z m-752 -29 c-4 -26 -27 -28 -42 -3 -8 13 -8 20 3 26 21
14 42 1 39 -23z m-540 2 c30 -30 1 -98 -41 -98 -27 0 -57 28 -57 53 0 45 67
76 98 45z m622 -208 c0 -71 -3 -130 -7 -130 -5 0 -23 22 -40 48 -49 72 -44
150 11 194 11 10 24 18 29 18 4 0 7 -58 7 -130z m-360 89 c0 -21 -20 -69 -30
-69 -5 0 -50 84 -50 93 0 1 18 1 40 -1 31 -3 40 -8 40 -23z m1308 -46 c3 -81
-13 -100 -24 -28 -8 55 -24 59 -24 6 0 -22 -4 -43 -10 -46 -6 -4 -10 12 -10
39 0 57 -17 60 -26 6 -9 -58 -34 -54 -34 6 0 32 -4 44 -12 42 -9 -3 -13 -29
-13 -81 l1 -77 -114 0 c-109 0 -114 1 -120 22 l-5 22 -8 -22 c-11 -30 -29 -28
-29 4 0 14 -4 23 -10 19 -5 -3 -10 -15 -10 -26 0 -25 -16 -25 -23 1 -8 29 -27
24 -28 -7 l-2 -28 -4 27 c-5 32 -32 28 -34 -6 -1 -19 -2 -19 -9 4 -4 14 -9 41
-10 60 -2 28 -4 30 -7 10 -3 -14 -9 -29 -14 -34 -5 -6 -9 -21 -10 -35 0 -24
-1 -24 -9 -6 -5 11 -9 37 -9 58 -1 56 -21 44 -21 -13 0 -27 -4 -50 -10 -50 -5
0 -10 7 -10 16 0 8 -4 12 -10 9 -6 -4 -10 10 -10 35 0 25 -4 39 -10 35 -5 -3
-10 -26 -10 -51 0 -28 -4 -43 -10 -39 -5 3 -10 24 -10 45 0 21 -4 42 -10 45
-6 4 -10 -12 -10 -39 0 -58 -20 -61 -21 -3 l-2 42 -7 -40 c-7 -39 -14 -23 -10
23 1 12 -3 22 -9 22 -6 0 -11 -18 -11 -40 0 -22 -4 -40 -10 -40 -5 0 -10 18
-10 40 0 53 -18 51 -23 -2 -2 -27 -4 -15 -5 33 -1 44 -7 80 -14 88 -11 10 -10
11 5 6 12 -5 17 -2 17 9 0 15 38 16 413 14 l412 -3 3 -72z m-1218 22 c-8 -26
-16 -35 -27 -31 -8 3 -17 6 -19 6 -2 0 -4 13 -4 29 0 25 5 30 28 33 15 2 29 3
30 1 2 -1 -1 -18 -8 -38z m-2456 3 c14 -23 -3 -52 -32 -56 -29 -4 -51 40 -32
63 16 20 49 16 64 -7z m2813 -95 c-2 -21 -4 -4 -4 37 0 41 2 58 4 38 2 -21 2
-55 0 -75z m-577 67 c6 -11 8 -20 5 -20 -3 0 -15 9 -27 20 -18 17 -19 20 -5
20 9 0 21 -9 27 -20z m-256 -77 c36 -37 66 -70 66 -73 0 -4 -54 -8 -120 -9
-115 -2 -120 -1 -120 18 0 15 75 106 107 130 1 0 31 -29 67 -66z m446 38 c0
-4 -11 -34 -24 -66 l-23 -58 -17 48 c-21 63 -20 74 6 84 24 8 58 4 58 -8z
m100 -116 c0 -25 -23 -35 -35 -15 -10 16 2 40 20 40 9 0 15 -9 15 -25z m849
-31 c15 -15 -35 -19 -233 -22 -208 -3 -276 3 -276 25 0 8 501 6 509 -3z
m-1259 -53 l0 -38 -67 -6 c-86 -9 -286 -9 -307 -1 -16 6 -23 64 -9 77 3 4 91
7 195 7 l188 0 0 -39z m155 9 c0 -30 -35 -40 -55 -15 -10 12 -10 18 0 30 20
25 55 15 55 -15z m-1970 -10 c0 -13 -6 -25 -12 -27 -16 -6 -27 21 -19 43 9 23
31 11 31 -16z m749 -66 c0 -89 -7 -143 -16 -137 -5 2 -8 52 -8 109 0 80 3 105
13 101 8 -2 12 -26 11 -73z m116 -19 c0 -46 -4 -86 -9 -89 -15 -10 -30 162
-15 177 17 16 24 -11 24 -88z m-231 28 c-2 -97 -16 -118 -17 -25 -1 46 3 82 8
82 6 0 10 -26 9 -57z m449 5 c-4 -51 -31 -61 -36 -15 -4 37 4 57 23 57 13 0
15 -9 13 -42z m-630 -2 c4 -21 -14 -37 -35 -29 -14 5 -18 35 -6 47 12 12 38 1
41 -18z m-261 -2 c5 -14 -11 -33 -28 -34 -9 0 -18 37 -11 44 11 12 33 6 39
-10z m113 -4 c0 -13 -7 -20 -19 -20 -22 0 -35 15 -26 30 12 19 45 11 45 -10z
m2263 3 c81 -3 107 -8 107 -18 0 -10 -25 -14 -102 -17 -114 -5 -171 7 -176 36
-4 16 0 18 30 11 18 -4 81 -9 141 -12z m297 -1 c0 -9 -29 -25 -62 -36 -27 -8
-31 11 -6 28 24 17 68 22 68 8z m-650 -12 c0 -5 -11 -10 -25 -10 -14 0 -25 5
-25 10 0 6 11 10 25 10 14 0 25 -4 25 -10z m-400 -54 c0 -56 1 -56 -171 -56
l-159 0 0 40 0 40 165 0 165 0 0 -24z m505 -17 c15 -24 -5 -58 -41 -69 -43
-14 -138 -7 -161 11 -12 11 -17 10 -24 -4 -11 -18 -67 -23 -128 -11 -36 8 -65
43 -55 68 5 14 30 16 204 16 129 0 201 -4 205 -11z m-1235 -18 c15 -28 13 -33
-12 -27 -16 4 -14 2 5 -7 30 -14 47 -33 47 -54 0 -9 -21 -13 -70 -13 -75 0
-91 14 -49 42 12 7 23 25 24 38 1 14 3 28 4 33 2 15 41 6 51 -12z m261 -69
c-5 -9 -18 -25 -29 -35 -18 -17 -20 -16 -45 9 -15 15 -27 31 -27 35 0 5 25 9
55 9 50 0 55 -2 46 -18z m469 -11 c0 -18 -16 -20 -146 -22 -112 -1 -129 1
-132 15 -3 14 13 16 137 16 82 0 141 -4 141 -9z"/>
<path d="M5356 9364 c-9 -25 10 -41 32 -28 24 15 21 38 -4 42 -13 2 -24 -4
-28 -14z"/>
<path d="M5470 9269 c0 -12 -4 -18 -11 -13 -17 10 -29 -16 -29 -68 0 -41 3
-48 19 -48 21 0 26 11 36 83 10 75 35 56 35 -28 0 -52 12 -63 45 -41 30 20 33
40 5 31 -12 -4 -20 -2 -20 5 0 6 9 28 20 50 11 22 20 42 20 45 0 3 -9 5 -20 5
-14 0 -20 -7 -21 -22 l0 -23 -11 23 c-15 30 -68 32 -68 1z"/>
<path d="M5353 9270 c-12 -5 -26 -18 -32 -29 -15 -27 -14 -84 1 -99 18 -18 68
-15 68 3 0 8 -7 15 -15 15 -10 0 -15 10 -15 34 0 36 21 66 45 66 8 0 17 5 20
10 8 12 -41 12 -72 0z"/>
<path d="M5378 9213 c7 -3 16 -2 19 1 4 3 -2 6 -13 5 -11 0 -14 -3 -6 -6z"/>
<path d="M5443 9103 c-25 -5 -32 -23 -9 -23 22 0 46 11 46 21 0 5 -3 8 -7 8
-5 -1 -18 -4 -30 -6z"/>
<path d="M5946 9133 c-16 -16 -2 -23 44 -23 33 0 50 4 50 13 0 12 -83 21 -94
10z"/>
<path d="M6082 9128 c-20 -20 -14 -28 19 -28 24 0 30 4 27 17 -4 22 -29 28
-46 11z"/>
<path d="M5920 9083 c0 -5 11 -20 25 -33 14 -13 25 -19 25 -13 0 5 -11 20 -25
33 -14 13 -25 19 -25 13z"/>
<path d="M3706 9188 c-19 -28 -40 -87 -34 -93 2 -3 17 20 32 51 29 57 30 85 2
42z"/>
<path d="M3763 9130 c-13 -5 -23 -12 -23 -15 0 -9 16 -5 36 10 22 16 19 18
-13 5z"/>
<path d="M3254 9052 c17 -28 100 -64 178 -78 46 -8 92 -17 103 -20 40 -10 -49
56 -102 76 -63 23 -190 39 -179 22z"/>
<path d="M6623 9099 c-48 -14 -83 -62 -83 -113 0 -47 8 -60 62 -99 44 -32 82
-34 123 -6 l30 20 -52 -6 c-47 -6 -53 -5 -53 12 0 10 7 29 16 41 13 19 24 22
76 22 l61 0 -7 32 c-8 39 -40 76 -83 94 -36 16 -45 16 -90 3z m85 -31 c17 -17
15 -48 -2 -48 -27 0 -46 12 -46 29 0 32 26 41 48 19z"/>
<path d="M2960 8871 c-14 -27 -13 -47 6 -65 20 -21 30 -20 54 4 24 24 25 43 4
64 -21 22 -51 20 -64 -3z"/>
<path d="M5210 8441 c0 -6 5 -13 10 -16 6 -3 10 1 10 9 0 9 -4 16 -10 16 -5 0
-10 -4 -10 -9z"/>
<path d="M2574 8638 c-6 -10 -9 -526 -5 -1090 l1 -128 267 0 266 0 -6 317 c-4
174 -7 451 -7 615 l0 298 -254 0 c-188 0 -257 -3 -262 -12z m409 -24 l77 -7 0
-573 0 -574 -224 0 -224 0 -6 28 c-3 15 -4 272 -3 572 l3 545 124 5 c69 3 137
7 151 8 14 1 60 -1 102 -4z"/>
<path d="M2786 8533 c-4 -5 -11 -8 -14 -8 -4 0 -17 -7 -29 -16 -28 -19 -42
-57 -36 -92 6 -31 65 -87 93 -87 29 0 51 11 43 23 -4 6 0 8 10 4 16 -6 46 26
61 67 10 28 -11 82 -39 100 -25 17 -76 21 -89 9z m71 -35 c25 -27 43 -62 43
-80 0 -7 -10 -24 -21 -38 -13 -16 -19 -19 -15 -8 4 15 2 16 -18 6 -18 -7 -31
-7 -52 3 -23 11 -30 22 -32 52 -6 75 51 113 95 65z"/>
<path d="M2673 8313 c-10 -3 -13 -57 -13 -219 0 -207 1 -214 20 -214 19 0 20
7 20 220 0 121 -3 220 -7 219 -5 0 -14 -3 -20 -6z"/>
<path d="M2950 8085 c0 -198 1 -205 20 -205 19 0 20 7 20 205 0 198 -1 205
-20 205 -19 0 -20 -7 -20 -205z"/>
<path d="M2760 8054 c0 -168 1 -174 20 -174 20 0 20 5 18 172 -3 154 -5 171
-20 174 -17 2 -18 -12 -18 -172z"/>
<path d="M2854 8105 c0 -81 1 -86 20 -83 19 3 21 11 24 86 3 80 2 82 -21 82
-23 0 -23 -2 -23 -85z"/>
<path d="M2852 7943 c3 -51 6 -58 26 -61 21 -3 22 0 22 57 0 59 -1 61 -25 61
-25 0 -26 -2 -23 -57z"/>
<path d="M2872 7775 c-43 -19 -64 -67 -52 -119 16 -72 80 -109 143 -83 19 8
38 20 42 27 4 7 -5 5 -23 -4 -17 -9 -43 -16 -57 -16 -36 0 -82 48 -91 95 -6
33 -3 41 24 68 21 20 45 33 74 38 41 6 41 7 8 7 -19 1 -50 -5 -68 -13z"/>
<path d="M2688 7758 c-28 -10 -37 -31 -18 -43 16 -10 12 -33 -6 -37 -14 -3
-13 -7 6 -31 28 -35 69 -34 87 3 12 23 11 25 -12 28 -27 4 -31 12 -14 29 8 8
8 13 0 17 -6 4 -11 13 -11 19 0 7 11 -1 25 -18 19 -23 24 -26 25 -12 0 17 -34
58 -47 56 -5 0 -20 -5 -35 -11z m49 -114 c-3 -3 -12 -4 -19 -1 -8 3 -5 6 6 6
11 1 17 -2 13 -5z"/>
<path d="M2871 7734 c-30 -38 -28 -87 5 -113 34 -26 53 -26 104 0 45 24 53 56
23 99 -24 35 -33 40 -75 40 -28 0 -42 -6 -57 -26z m129 -83 c0 -8 -73 -31 -80
-25 -2 3 9 16 25 29 22 17 34 20 43 13 6 -6 12 -13 12 -17z"/>
<path d="M3438 8613 l-88 -4 0 -69 0 -70 350 0 350 0 0 75 0 75 -262 -2 c-145
-1 -302 -4 -350 -5z"/>
<path d="M3383 8358 c-6 -7 -13 -25 -15 -40 -5 -27 -4 -28 43 -28 42 0 49 3
54 23 4 14 14 23 27 24 12 1 28 9 37 18 14 13 8 15 -61 15 -48 0 -79 -4 -85
-12z"/>
<path d="M3680 8325 c0 -13 23 -15 150 -15 127 0 150 2 150 15 0 13 -23 15
-150 15 -127 0 -150 -2 -150 -15z"/>
<path d="M3506 8264 c-23 -29 -29 -47 -30 -88 -1 -49 0 -51 27 -54 35 -4 39 7
35 101 l-3 77 -29 -36z"/>
<path d="M3680 8244 c0 -11 29 -14 150 -14 124 0 150 3 150 14 0 12 -26 15
-150 14 -121 0 -150 -3 -150 -14z"/>
<path d="M3365 8177 c1 -34 5 -52 13 -51 7 1 26 2 42 3 29 1 30 3 30 45 0 41
-2 44 -31 50 -53 10 -54 9 -54 -47z"/>
<path d="M3802 8173 c-92 -3 -122 -7 -119 -16 2 -7 20 -12 40 -11 239 3 257 4
257 19 0 10 -9 14 -27 13 -16 -1 -83 -4 -151 -5z"/>
<path d="M3393 8013 c-19 -4 -23 -11 -23 -44 l0 -40 48 3 c45 3 47 4 44 32 -3
25 -1 28 19 23 24 -6 59 8 59 23 0 10 -103 12 -147 3z"/>
<path d="M3680 8005 c0 -13 22 -15 134 -15 74 0 141 3 150 6 43 17 2 24 -134
24 -127 0 -150 -2 -150 -15z"/>
<path d="M3503 7900 c-25 -33 -33 -54 -33 -86 0 -37 3 -43 23 -46 12 -2 22
-10 22 -18 0 -12 -17 -16 -77 -18 -79 -3 -85 -6 -69 -31 7 -11 26 -13 86 -8
42 3 79 8 81 10 3 2 3 58 2 123 l-3 119 -32 -45z"/>
<path d="M3690 7930 c0 -6 53 -10 140 -10 87 0 140 4 140 10 0 6 -53 10 -140
10 -87 0 -140 -4 -140 -10z"/>
<path d="M3363 7828 l2 -53 40 0 40 0 -3 45 c-4 49 -13 60 -54 60 -27 0 -28
-1 -25 -52z"/>
<path d="M3721 7858 c29 -6 80 -6 140 0 l94 9 -140 0 c-114 1 -132 -1 -94 -9z"/>
<path d="M3705 7800 c46 -12 273 -12 280 0 4 7 -49 10 -152 9 -95 -1 -146 -4
-128 -9z"/>
<path d="M3680 7715 c0 -13 23 -15 150 -15 127 0 150 2 150 15 0 13 -23 15
-150 15 -127 0 -150 -2 -150 -15z"/>
<path d="M3428 7582 l-78 -3 0 -74 0 -75 213 0 c118 0 275 -3 349 -6 157 -8
153 -11 142 96 l-6 66 -272 0 c-149 -1 -306 -2 -348 -4z m592 -78 c0 -14 -5
-24 -11 -22 -6 2 -10 7 -10 11 1 4 1 14 1 22 0 8 5 15 10 15 6 0 10 -12 10
-26z"/>
<path d="M2310 8308 c-12 -22 -12 -22 6 -6 10 10 15 20 12 24 -4 3 -12 -5 -18
-18z"/>
<path d="M2310 7815 c-7 -9 -11 -18 -8 -20 3 -3 11 1 18 10 7 9 11 18 8 20 -3
3 -11 -1 -18 -10z"/>
<path d="M2316 7285 c-3 -8 -1 -15 4 -15 6 0 10 7 10 15 0 8 -2 15 -4 15 -2 0
-6 -7 -10 -15z"/>
<path d="M7029 8064 c-37 -11 -40 -38 -37 -434 3 -356 4 -385 20 -388 17 -3
18 23 20 395 l3 398 138 3 c80 1 137 7 137 12 0 6 -20 10 -43 10 -24 0 -84 2
-133 5 -49 2 -96 2 -105 -1z"/>
<path d="M8000 8051 c0 -6 55 -12 138 -13 l137 -3 5 -392 c4 -292 8 -395 17
-404 7 -7 16 -9 20 -5 5 4 9 179 11 389 2 297 -1 388 -11 407 -12 25 -14 25
-165 28 -96 2 -152 -1 -152 -7z"/>
<path d="M7828 7930 c-63 -8 -128 -34 -128 -52 0 -11 2 -10 46 9 33 15 70 18
234 18 148 0 201 -4 220 -14 23 -13 24 -13 12 2 -8 9 -28 20 -45 26 -45 14
-259 21 -339 11z"/>
<path d="M7157 7920 c-32 -10 -57 -28 -57 -41 0 -5 10 -3 23 5 53 34 385 29
456 -7 22 -11 31 -12 29 -4 -2 7 -24 22 -48 35 -41 20 -57 22 -210 21 -91 0
-178 -5 -193 -9z"/>
<path d="M7143 7863 c-34 -3 -43 -8 -43 -23 0 -17 3 -18 28 -8 38 16 375 15
431 -1 54 -15 63 -8 19 15 -28 15 -62 18 -213 20 -99 1 -199 0 -222 -3z"/>
<path d="M7743 7859 c-61 -14 -54 -29 10 -21 68 9 192 9 345 -1 113 -7 122 -6
122 10 0 17 -17 18 -218 20 -119 1 -236 -3 -259 -8z"/>
<path d="M7190 7815 c-8 -2 -32 -6 -52 -10 -29 -4 -38 -11 -38 -25 0 -22 10
-26 27 -9 19 19 282 34 371 21 43 -6 86 -14 96 -18 14 -5 17 -3 14 7 -8 25
-89 37 -248 37 -85 0 -162 -2 -170 -3z"/>
<path d="M7740 7806 c-31 -11 -35 -17 -35 -47 0 -31 2 -34 25 -29 14 3 130 5
258 5 225 0 279 6 187 19 -58 9 -393 9 -428 1 -36 -9 -36 12 1 26 73 28 421
19 458 -12 11 -9 14 -7 14 9 0 27 -29 32 -255 37 -144 4 -199 2 -225 -9z"/>
<path d="M7275 7759 c-188 -8 -175 -6 -175 -24 0 -11 7 -14 25 -10 14 3 36 7
49 10 13 3 97 5 187 6 122 1 175 -3 207 -14 32 -11 42 -12 42 -2 0 32 -119 44
-335 34z"/>
<path d="M7240 7714 c-19 -2 -59 -7 -87 -10 -44 -4 -53 -9 -53 -25 0 -16 3
-18 20 -9 10 6 70 14 132 19 124 10 259 0 327 -24 54 -19 53 1 -2 28 -29 15
-66 19 -170 22 -72 2 -148 1 -167 -1z"/>
<path d="M7760 7707 c-46 -10 -56 -16 -58 -35 -4 -23 -3 -23 28 -7 50 26 180
36 330 25 169 -12 160 -12 160 3 0 25 -357 35 -460 14z"/>
<path d="M7840 7659 c-85 -7 -140 -28 -140 -51 0 -17 2 -17 23 -4 49 32 254
46 416 30 117 -13 59 -23 -151 -26 -141 -2 -223 -8 -242 -16 -38 -17 -28 -24
15 -11 19 6 130 13 247 16 l212 6 0 23 c0 16 -7 25 -22 28 -38 8 -289 12 -358
5z"/>
<path d="M7180 7653 c-65 -7 -80 -13 -80 -33 0 -22 10 -26 26 -10 12 12 168
30 264 30 71 0 170 -17 215 -35 18 -8 18 -7 6 8 -26 33 -106 47 -255 45 -78 0
-157 -3 -176 -5z"/>
<path d="M7190 7601 c-22 -5 42 -9 165 -12 170 -3 205 -7 234 -22 24 -13 32
-15 29 -5 -11 33 -61 43 -228 44 -91 1 -181 -1 -200 -5z"/>
<path d="M7113 7564 c-7 -3 -13 -21 -13 -39 l0 -33 38 9 c49 11 258 11 351 -1
41 -6 85 -17 97 -25 29 -19 40 -19 24 -1 -6 8 -33 23 -58 33 -39 15 -78 18
-234 18 -176 0 -222 6 -163 21 13 3 104 4 202 2 162 -3 182 -6 222 -27 28 -15
42 -18 39 -9 -2 7 -22 22 -44 33 -35 18 -61 20 -244 22 -113 1 -211 0 -217 -3z"/>
<path d="M7765 7555 c-27 -8 -53 -14 -57 -15 -5 0 -8 -9 -8 -19 0 -19 1 -18
43 2 37 19 64 22 229 25 153 3 192 1 217 -11 30 -15 31 -15 31 9 l0 24 -202
-1 c-141 0 -218 -5 -253 -14z"/>
<path d="M7835 7521 c-63 -11 -135 -35 -135 -43 0 -10 -2 -11 61 9 59 19 291
25 402 10 60 -8 82 6 25 17 -56 10 -311 15 -353 7z"/>
<path d="M7128 7468 c-18 -6 -28 -17 -28 -29 0 -19 1 -19 27 -2 23 16 52 18
208 18 166 0 183 -2 224 -22 49 -24 62 -23 40 3 -31 37 -72 44 -261 43 -101 0
-195 -5 -210 -11z"/>
<path d="M7775 7464 c-22 -8 -48 -17 -57 -20 -10 -4 -18 -15 -18 -25 0 -24 4
-24 38 1 43 32 132 43 282 36 75 -3 150 -10 168 -15 28 -8 32 -7 32 8 0 25
-54 31 -249 30 -105 -1 -169 -6 -196 -15z"/>
<path d="M7200 7421 c-63 -8 -100 -25 -100 -46 0 -19 0 -19 41 2 26 13 68 18
173 21 153 5 229 -6 271 -40 25 -19 27 -20 24 -3 -2 11 -25 30 -51 43 -41 21
-63 25 -175 27 -70 2 -153 0 -183 -4z"/>
<path d="M7837 7420 c-56 -7 -137 -49 -137 -70 0 -15 9 -12 40 10 16 11 52 25
81 30 75 14 254 12 324 -4 65 -16 77 -14 54 10 -28 27 -232 41 -362 24z"/>
<path d="M1866 7915 c4 -8 10 -15 15 -15 5 0 9 7 9 15 0 8 -7 15 -15 15 -9 0
-12 -6 -9 -15z"/>
<path d="M5130 7757 c-93 -31 -107 -160 -26 -236 22 -20 32 -23 77 -19 45 5
58 11 86 42 27 29 33 44 33 81 0 102 -78 162 -170 132z m47 -112 c0 -8 -4 -12
-9 -9 -4 3 -8 -2 -8 -10 0 -8 5 -18 11 -22 7 -4 8 -9 0 -17 -7 -7 -15 -6 -26
3 -20 17 -19 47 3 59 23 14 29 13 29 -4z"/>
<path d="M4483 7713 l-38 -38 37 -3 c24 -2 38 -9 41 -20 3 -9 5 9 6 41 0 31
-1 57 -3 57 -3 0 -22 -17 -43 -37z"/>
<path d="M4710 7632 c0 -6 -3 -17 -6 -25 -4 -12 0 -14 16 -10 12 3 20 12 18
21 -3 17 -28 29 -28 14z"/>
<path d="M4692 7558 c2 -16 12 -24 36 -29 45 -9 40 17 -6 37 -32 13 -33 13
-30 -8z"/>
<path d="M4162 6399 c2 -7 10 -15 17 -17 8 -3 12 1 9 9 -2 7 -10 15 -17 17 -8
3 -12 -1 -9 -9z"/>
<path d="M4100 6361 c0 -12 5 -21 10 -21 6 0 10 6 10 14 0 8 -4 18 -10 21 -5
3 -10 -3 -10 -14z"/>
<path d="M4030 6315 c0 -8 7 -15 15 -15 8 0 15 7 15 15 0 8 -7 15 -15 15 -8 0
-15 -7 -15 -15z"/>
<path d="M3970 6265 c0 -8 7 -15 15 -15 8 0 15 7 15 15 0 8 -7 15 -15 15 -8 0
-15 -7 -15 -15z"/>
<path d="M3900 6205 c0 -10 7 -15 18 -13 21 4 19 22 -2 26 -10 2 -16 -3 -16
-13z"/>
<path d="M3840 6145 c0 -10 7 -15 18 -13 21 4 19 22 -2 26 -10 2 -16 -3 -16
-13z"/>
<path d="M3786 6093 c-11 -12 -6 -33 8 -33 19 0 28 27 11 33 -7 3 -16 3 -19 0z"/>
<path d="M3725 6020 c-7 -12 2 -30 16 -30 12 0 12 27 0 35 -5 3 -12 1 -16 -5z"/>
<path d="M3722 3904 c4 -21 22 -23 26 -1 2 10 -3 17 -13 17 -10 0 -15 -6 -13
-16z"/>
<path d="M3773 3844 c-7 -18 17 -38 31 -24 11 11 1 40 -14 40 -6 0 -13 -7 -17
-16z"/>
<path d="M3840 3766 c0 -8 4 -17 9 -20 11 -7 33 18 24 27 -12 12 -33 7 -33 -7z"/>
<path d="M3915 3711 c-8 -15 3 -31 21 -31 9 0 14 7 12 17 -4 20 -24 28 -33 14z"/>
<path d="M3992 3638 c5 -15 28 -18 29 -3 0 6 -7 12 -17 13 -10 3 -15 -1 -12
-10z"/>
<path d="M4070 3585 c0 -8 7 -15 15 -15 8 0 15 7 15 15 0 8 -7 15 -15 15 -8 0
-15 -7 -15 -15z"/>
<path d="M4164 3536 c-8 -22 3 -33 18 -18 9 9 9 15 0 24 -9 9 -13 7 -18 -6z"/>
<path d="M4250 3479 c0 -24 23 -21 28 4 2 10 -3 17 -12 17 -10 0 -16 -9 -16
-21z"/>
<path d="M4347 3454 c-14 -14 -7 -35 11 -32 9 2 17 10 17 17 0 16 -18 25 -28
15z"/>
<path d="M4446 3423 c-12 -12 -6 -33 9 -33 8 0 15 6 15 14 0 17 -14 28 -24 19z"/>
<path d="M4545 3390 c-7 -12 2 -30 16 -30 12 0 12 27 0 35 -5 3 -12 1 -16 -5z"/>
<path d="M5340 3385 c0 -8 5 -15 10 -15 6 0 10 7 10 15 0 8 -4 15 -10 15 -5 0
-10 -7 -10 -15z"/>
<path d="M4647 3374 c-14 -15 -6 -34 14 -34 14 0 19 5 17 17 -3 18 -20 27 -31
17z"/>
<path d="M5260 3360 c0 -5 4 -10 9 -10 6 0 13 5 16 10 3 6 -1 10 -9 10 -9 0
-16 -4 -16 -10z"/>
<path d="M4750 3346 c0 -10 9 -16 21 -16 24 0 21 23 -4 28 -10 2 -17 -3 -17
-12z"/>
<path d="M5170 3350 c0 -5 7 -10 15 -10 8 0 15 5 15 10 0 6 -7 10 -15 10 -8 0
-15 -4 -15 -10z"/>
<path d="M4860 3334 c0 -9 5 -14 12 -12 18 6 21 28 4 28 -9 0 -16 -7 -16 -16z"/>
<path d="M4960 3335 c0 -8 7 -15 15 -15 8 0 15 7 15 15 0 8 -7 15 -15 15 -8 0
-15 -7 -15 -15z"/>
<path d="M5063 3338 c2 -7 10 -13 17 -13 7 0 15 6 18 13 2 7 -5 12 -18 12 -13
0 -20 -5 -17 -12z"/>
<path d="M6630 5130 c0 -5 9 -10 20 -10 11 0 20 5 20 10 0 6 -9 10 -20 10 -11
0 -20 -4 -20 -10z"/>
<path d="M6630 5045 c0 -8 9 -15 20 -15 11 0 20 7 20 15 0 8 -9 15 -20 15 -11
0 -20 -7 -20 -15z"/>
<path d="M6630 4955 c0 -17 2 -18 24 -9 23 9 20 24 -4 24 -11 0 -20 -7 -20
-15z"/>
<path d="M6630 4875 c0 -10 7 -15 18 -13 21 4 19 22 -2 26 -10 2 -16 -3 -16
-13z"/>
<path d="M1450 6733 c-29 -11 -69 -56 -75 -83 -9 -43 18 -97 58 -116 43 -21
80 -13 118 26 41 40 41 105 1 143 -28 27 -75 41 -102 30z"/>
<path d="M1079 6557 c-77 -52 -57 -166 33 -186 65 -15 148 42 148 101 0 21
-101 108 -125 108 -12 0 -37 -10 -56 -23z"/>
<path d="M1048 5988 c-179 -254 -338 -485 -338 -492 0 -3 290 -6 645 -6 355 0
645 2 645 4 0 7 -333 421 -341 424 -4 2 -33 -38 -64 -89 -47 -76 -56 -97 -51
-122 4 -21 1 -36 -10 -49 -35 -38 -100 -9 -91 40 4 19 -12 47 -72 125 -42 55
-80 102 -86 104 -5 1 -37 -39 -70 -89 -48 -74 -60 -100 -60 -132 0 -33 -5 -43
-27 -55 -24 -14 -28 -14 -47 3 -26 23 -28 72 -3 85 16 9 128 180 153 234 10
22 7 31 -19 69 -65 94 -57 96 -164 -54z"/>
<path d="M7235 6696 c-40 -17 -90 -75 -105 -122 -17 -51 1 -132 38 -167 107
-102 277 -62 313 75 16 59 2 113 -44 165 -53 60 -133 79 -202 49z m130 -22
c37 -17 79 -66 96 -110 16 -45 2 -99 -41 -146 -38 -43 -38 -43 -106 -43 -80 0
-127 25 -150 81 -58 139 72 279 201 218z"/>
<path d="M7253 6636 c-36 -16 -73 -69 -73 -104 0 -90 99 -159 173 -121 64 33
89 88 68 152 -24 71 -99 104 -168 73z"/>
<path d="M7933 6488 c3 -10 107 -13 475 -13 371 0 472 3 472 13 0 9 -102 12
-476 12 -376 0 -475 -3 -471 -12z"/>
<path d="M8048 6413 c-60 -2 -108 -8 -108 -13 0 -6 156 -10 420 -10 273 0 420
3 420 10 0 6 -79 10 -217 10 -120 0 -261 2 -313 4 -52 2 -143 1 -202 -1z"/>
<path d="M8050 6333 c0 -6 7 -14 16 -17 27 -10 242 -7 249 4 4 6 -14 10 -47
10 -29 0 -90 3 -135 7 -55 4 -83 2 -83 -4z"/>
<path d="M8505 6320 c3 -5 35 -10 70 -10 35 0 67 5 70 10 4 6 -22 10 -70 10
-48 0 -74 -4 -70 -10z"/>
<path d="M8850 6075 l0 -225 40 0 40 0 0 225 0 225 -40 0 -40 0 0 -225z"/>
<path d="M8090 6050 l0 -200 30 0 30 0 0 200 0 200 -30 0 -30 0 0 -200z"/>
<path d="M8505 6240 c3 -5 17 -10 31 -10 13 0 24 5 24 10 0 6 -14 10 -31 10
-17 0 -28 -4 -24 -10z"/>
<path d="M8360 6045 l0 -195 30 0 30 0 0 195 0 195 -30 0 -30 0 0 -195z"/>
<path d="M8700 6024 l0 -175 43 3 c23 2 41 6 40 11 -2 4 -3 81 -3 172 l0 165
-40 0 -40 0 0 -176z"/>
<path d="M7970 6152 c-28 -14 -35 -23 -35 -47 0 -27 3 -30 30 -26 17 1 33 8
37 15 7 10 12 77 6 76 -2 -1 -19 -9 -38 -18z"/>
<path d="M8490 6005 l0 -155 50 0 50 0 0 155 0 155 -50 0 -50 0 0 -155z"/>
<path d="M8243 6043 c-22 -4 -23 -9 -23 -98 l0 -93 35 0 35 0 0 99 c0 73 -3
99 -12 98 -7 -1 -23 -4 -35 -6z"/>
<path d="M7958 6023 l-28 -4 0 -85 0 -85 38 3 37 3 3 88 c2 66 0 87 -10 86 -7
-1 -25 -4 -40 -6z"/>
<path d="M2298 6198 c-55 -42 -33 -138 32 -138 65 0 102 71 63 119 -23 26 -72
37 -95 19z"/>
<path d="M2296 5829 c-12 -17 -13 -25 -4 -30 9 -6 8 -13 -5 -27 -9 -10 -17
-25 -17 -33 1 -24 39 34 46 69 8 42 1 50 -20 21z"/>
<path d="M2292 5698 c-6 -18 -13 -42 -17 -53 -5 -16 -1 -14 19 8 25 27 36 77
16 77 -5 0 -13 -15 -18 -32z"/>
<path d="M2291 5597 c-27 -43 -21 -61 10 -30 13 12 19 30 17 44 -3 22 -4 22
-27 -14z"/>
<path d="M2291 5512 c-25 -35 -26 -42 -7 -42 14 0 43 57 33 66 -2 3 -14 -8
-26 -24z"/>
<path d="M7290 5999 c-21 -4 -48 -22 -67 -43 -79 -86 -14 -226 105 -226 66 0
136 75 135 143 -2 91 -78 146 -173 126z"/>
<path d="M9250 5910 c-18 -23 -30 -43 -28 -45 3 -3 19 15 37 40 40 56 34 59
-9 5z"/>
<path d="M4180 5503 c-56 -12 -151 -64 -193 -105 -24 -24 -57 -71 -73 -104
-26 -54 -29 -68 -29 -164 0 -97 2 -110 32 -172 39 -82 100 -145 179 -184 54
-26 68 -29 164 -29 98 0 109 2 165 31 71 37 151 119 186 189 21 43 24 64 24
151 0 94 -2 104 -34 167 -65 127 -193 214 -328 222 -37 2 -79 1 -93 -2z m95
-79 c63 -11 93 -39 130 -120 23 -51 42 -78 59 -86 34 -15 33 -24 -11 -66 -21
-19 -38 -41 -38 -48 0 -7 -17 -29 -38 -48 -31 -28 -37 -39 -31 -60 5 -21 2
-27 -20 -35 -14 -6 -37 -28 -51 -50 -23 -37 -27 -40 -49 -30 -35 16 -67 79
-65 131 1 23 -1 58 -5 76 -7 29 -11 32 -42 32 -50 0 -69 13 -88 60 -20 50 -20
74 -1 90 8 7 15 23 15 36 0 37 136 139 175 130 11 -3 38 -8 60 -12z m205 -65
c57 -45 60 -61 17 -92 -33 -26 -46 -16 -70 53 -8 25 -18 53 -22 63 -12 30 20
20 75 -24z"/>
<path d="M2296 5274 c-3 -9 -3 -20 0 -26 4 -6 1 -14 -6 -18 -15 -9 -22 -60 -8
-60 6 0 8 7 4 15 -3 9 3 19 15 26 15 8 20 18 16 35 -2 13 0 24 4 24 5 0 9 5 9
10 0 16 -27 11 -34 -6z"/>
<path d="M2303 5184 c4 -4 -2 -19 -13 -34 -28 -39 -25 -48 5 -20 26 24 34 60
13 60 -6 0 -8 -3 -5 -6z"/>
<path d="M2297 5092 c-15 -15 -27 -37 -27 -48 1 -16 5 -14 30 14 17 18 30 39
30 47 0 20 -2 19 -33 -13z"/>
<path d="M2292 5010 c-12 -16 -22 -35 -22 -42 1 -18 50 39 50 58 0 20 -3 18
-28 -16z"/>
<path d="M2295 4938 c-11 -18 -21 -44 -22 -58 l-3 -25 23 27 c18 23 37 88 24
88 -1 0 -11 -15 -22 -32z"/>
<path d="M2308 4863 c-21 -25 -41 -64 -35 -70 3 -3 18 14 33 36 28 43 29 65 2
34z"/>
<path d="M2298 4778 c-8 -13 -18 -36 -22 -53 l-6 -30 25 30 c21 25 35 75 21
75 -2 0 -10 -10 -18 -22z"/>
<path d="M2291 4686 c-13 -14 -21 -30 -19 -37 2 -7 14 1 27 20 28 39 23 50 -8
17z"/>
<path d="M7750 5055 c0 -13 11 -15 62 -13 38 2 63 8 66 16 3 9 -14 12 -62 12
-53 0 -66 -3 -66 -15z"/>
<path d="M8176 5054 c-3 -9 -6 -29 -6 -45 l0 -29 121 0 122 0 -7 31 c-3 17 -6
38 -6 45 0 22 -216 20 -224 -2z"/>
<path d="M8490 4966 c0 -20 11 -21 168 -18 116 2 142 6 142 18 0 12 -26 14
-155 14 -126 0 -155 -3 -155 -14z"/>
<path d="M7765 4890 c-8 -13 20 -24 36 -15 8 6 7 10 -2 16 -18 11 -26 11 -34
-1z"/>
<path d="M7978 4893 c-40 -10 -14 -23 47 -23 51 0 65 3 65 15 0 11 -11 15 -47
14 -27 -1 -56 -3 -65 -6z"/>
<path d="M8492 4883 c2 -13 12 -18 33 -17 17 0 87 1 158 2 105 2 127 5 127 17
0 13 -25 15 -161 15 -147 0 -160 -1 -157 -17z"/>
<path d="M8170 4880 c0 -6 47 -10 120 -10 73 0 120 4 120 10 0 6 -47 10 -120
10 -73 0 -120 -4 -120 -10z"/>
<path d="M7773 4813 c-22 -8 -14 -23 12 -23 16 0 25 6 25 15 0 15 -14 18 -37
8z"/>
<path d="M7902 4813 c-53 -10 -3 -23 89 -23 81 0 99 3 99 15 0 12 -15 15 -82
14 -46 -1 -93 -4 -106 -6z"/>
<path d="M8170 4805 c0 -13 19 -15 121 -15 92 0 120 3 117 13 -3 8 -39 13
-121 15 -100 2 -117 0 -117 -13z"/>
<path d="M8492 4803 c3 -16 20 -18 161 -21 152 -2 157 -2 157 18 0 19 -6 20
-161 20 -147 0 -160 -1 -157 -17z"/>
<path d="M8494 4729 c-14 -23 16 -28 156 -27 134 1 150 3 150 18 0 15 -16 17
-150 17 -83 0 -153 -4 -156 -8z"/>
<path d="M7768 4664 c-21 -20 5 -24 163 -24 115 0 170 3 167 11 -4 12 -319 25
-330 13z"/>
<path d="M8768 4653 c7 -3 16 -2 19 1 4 3 -2 6 -13 5 -11 0 -14 -3 -6 -6z"/>
<path d="M7760 4570 c0 -6 63 -10 170 -10 107 0 170 4 170 10 0 6 -63 10 -170
10 -107 0 -170 -4 -170 -10z"/>
<path d="M8180 4565 c0 -17 17 -18 98 -9 77 10 63 24 -23 24 -60 0 -75 -3 -75
-15z"/>
<path d="M7770 4495 c0 -13 24 -15 159 -15 88 0 162 4 165 9 9 14 -59 21 -196
21 -107 0 -128 -2 -128 -15z"/>
<path d="M8180 4489 c0 -19 4 -21 31 -15 17 3 71 6 120 6 72 0 89 3 89 15 0
13 -20 15 -120 15 -116 0 -120 -1 -120 -21z"/>
<path d="M8495 4500 c-4 -6 -5 -13 -3 -15 2 -2 73 -5 158 -6 124 -1 155 2 155
13 0 17 -300 25 -310 8z"/>
<path d="M7770 4420 c0 -6 57 -10 150 -10 93 0 150 4 150 10 0 6 -57 10 -150
10 -93 0 -150 -4 -150 -10z"/>
<path d="M8180 4414 c0 -15 11 -16 86 -11 126 7 134 27 11 27 -83 0 -97 -2
-97 -16z"/>
<path d="M8500 4415 c0 -13 23 -15 156 -15 120 0 155 3 152 13 -4 9 -46 13
-156 15 -131 2 -152 0 -152 -13z"/>
<path d="M8390 4317 c0 -33 4 -57 10 -57 7 0 8 19 4 53 -9 70 -14 72 -14 4z"/>
<path d="M7770 4343 c0 -8 14 -13 39 -13 56 0 60 17 6 22 -31 2 -45 -1 -45 -9z"/>
<path d="M8180 4339 c0 -16 7 -17 73 -12 39 3 74 7 76 9 9 8 -7 12 -76 16 -66
5 -73 3 -73 -13z"/>
<path d="M8500 4341 c0 -20 4 -21 150 -21 127 0 150 2 150 15 0 13 -22 15
-134 15 -74 0 -141 3 -150 6 -12 4 -16 0 -16 -15z"/>
<path d="M7833 4273 c-40 -2 -73 -8 -73 -13 0 -6 67 -10 166 -10 128 0 165 3
162 13 -5 13 -112 17 -255 10z"/>
<path d="M8180 4265 c0 -12 16 -15 80 -15 64 0 80 3 80 15 0 12 -16 15 -80 15
-64 0 -80 -3 -80 -15z"/>
<path d="M8500 4265 c0 -13 20 -15 126 -15 96 0 125 3 122 13 -3 8 -40 13
-126 15 -104 2 -122 0 -122 -13z"/>
<path d="M8180 4194 c0 -17 10 -19 112 -19 80 0 112 3 115 13 4 9 -20 12 -95
12 -55 0 -107 3 -116 6 -11 4 -16 0 -16 -12z"/>
<path d="M8500 4187 c0 -16 12 -17 152 -15 107 2 153 7 155 15 3 9 -36 13
-151 15 -144 3 -156 2 -156 -15z"/>
<path d="M7760 4191 c0 -17 33 -21 186 -21 130 0 154 2 154 15 0 13 -26 15
-170 15 -93 0 -170 -4 -170 -9z"/>
<path d="M8243 4122 c-35 -2 -63 -7 -63 -12 0 -14 117 -13 125 1 9 14 8 14
-62 11z"/>
<path d="M8500 4111 c0 -21 3 -21 155 -21 131 0 155 2 155 15 0 12 -19 15
-109 15 -59 0 -129 3 -155 6 -42 6 -46 5 -46 -15z"/>
<path d="M7760 4110 c0 -6 62 -10 165 -10 103 0 165 4 165 10 0 6 -62 10 -165
10 -103 0 -165 -4 -165 -10z"/>
<path d="M8392 3940 c0 -19 2 -27 5 -17 2 9 2 25 0 35 -3 9 -5 1 -5 -18z"/>
<path d="M9377 4463 c-10 -11 -39 -18 -77 -21 -51 -4 -60 -7 -60 -24 0 -10 6
-21 14 -24 25 -10 92 15 121 46 29 31 32 52 2 23z"/>
<path d="M4935 4921 c-221 -63 -356 -234 -358 -456 -1 -151 61 -282 177 -372
82 -64 158 -93 256 -100 276 -20 510 195 510 467 0 123 -43 230 -128 321 -72
77 -132 112 -238 139 -93 24 -139 24 -219 1z m288 -104 c156 -77 238 -225 224
-399 -12 -139 -98 -256 -237 -322 -59 -28 -74 -31 -160 -31 -87 0 -101 3 -168
34 -142 67 -232 208 -232 366 0 171 106 318 273 377 39 14 73 18 139 15 76 -3
95 -8 161 -40z"/>
<path d="M4839 4764 c-7 -9 -9 -18 -3 -22 5 -4 38 -40 73 -80 62 -71 63 -73
47 -97 -24 -36 -21 -117 5 -141 20 -18 20 -18 0 -26 -28 -10 -76 -99 -96 -176
-9 -35 -15 -66 -13 -67 2 -2 15 -6 30 -10 23 -6 28 -3 32 17 22 113 30 141 49
170 22 32 26 33 86 33 64 0 64 0 83 -37 11 -21 25 -70 32 -110 13 -75 22 -86
55 -69 18 10 19 14 5 72 -18 76 -52 157 -71 168 -12 6 -11 14 7 49 28 53 21
98 -19 141 -25 27 -36 31 -83 31 l-53 0 -69 85 c-38 47 -73 85 -76 85 -4 0
-13 -7 -21 -16z m274 -226 c19 -23 22 -60 6 -89 -26 -49 -107 -42 -130 13 -33
80 67 143 124 76z"/>
<path d="M849 3973 c0 -115 -2 -219 -4 -233 -6 -46 4 -60 41 -60 l34 0 0 250
0 250 -35 0 -35 0 -1 -207z"/>
<path d="M1221 4143 l-21 -18 2 -460 3 -460 648 -3 647 -2 -2 472 -3 473 -112
3 c-81 2 -113 -1 -113 -9 0 -8 12 -10 38 -5 22 3 42 3 45 -1 4 -3 28 -7 54 -7
l48 -1 3 -448 2 -447 -607 2 -608 3 -3 448 -2 447 26 0 c16 0 24 5 22 13 -7
19 -43 20 -67 0z"/>
<path d="M1320 4015 c0 -13 65 -15 525 -15 460 0 525 2 525 15 0 13 -65 15
-525 15 -460 0 -525 -2 -525 -15z"/>
<path d="M1330 3925 c0 -8 11 -17 25 -21 14 -4 34 -23 49 -48 14 -24 32 -48
40 -56 9 -7 16 -20 16 -30 0 -15 -6 -16 -42 -9 -74 14 -98 11 -98 -11 0 -18 7
-20 73 -20 l72 0 2 -34 3 -34 -43 4 c-23 3 -57 7 -74 9 -27 3 -33 0 -33 -16 0
-17 7 -19 75 -19 l75 0 0 -31 0 -32 -75 5 c-68 5 -75 3 -75 -14 0 -16 9 -18
75 -18 73 0 75 -1 75 -25 0 -24 -2 -25 -75 -25 -60 0 -75 -3 -75 -15 0 -12 15
-15 76 -15 l76 0 -2 -37 c-1 -21 -2 -50 -1 -65 l1 -28 371 0 c362 0 371 0 376
20 5 18 14 20 84 20 64 0 79 3 79 15 0 12 -16 15 -86 15 l-85 0 3 28 c3 27 4
27 86 30 64 2 82 6 82 17 0 12 -17 15 -85 15 -83 0 -85 1 -85 24 0 29 21 36
108 36 46 0 63 3 60 13 -3 8 -32 13 -86 15 -80 3 -82 4 -82 27 0 24 2 25 80
25 61 0 80 3 80 14 0 14 -49 26 -111 26 -31 0 -37 4 -41 25 l-5 25 83 0 c65 0
84 3 84 14 0 18 -31 26 -102 26 -64 0 -74 13 -37 46 12 10 30 36 40 57 17 32
24 37 54 37 24 0 35 5 35 15 0 13 -64 15 -520 15 -453 0 -520 -2 -520 -15z
m890 -37 c0 -28 -331 -218 -380 -218 -38 0 -321 154 -362 197 l-27 28 385 0
c211 0 384 -3 384 -7z m-594 -189 c129 -81 131 -83 139 -138 9 -66 15 -73 65
-69 30 2 46 9 54 23 6 11 13 22 16 25 3 3 14 23 25 45 16 30 46 57 120 108 55
37 103 67 108 67 4 0 6 -82 5 -182 l-3 -183 -304 -3 c-168 -1 -308 1 -313 6
-9 9 -23 362 -15 362 3 0 49 -28 103 -61z"/>
<path d="M2308 3849 c-30 -17 -20 -29 23 -29 33 0 40 3 37 18 -4 20 -36 26
-60 11z"/>
<path d="M1320 3836 c0 -18 26 -27 56 -20 28 7 31 19 8 28 -28 11 -64 6 -64
-8z"/>
<path d="M1320 3395 c0 -12 14 -15 64 -15 48 0 65 4 70 15 4 12 -6 15 -64 15
-56 0 -70 -3 -70 -15z"/>
<path d="M2325 3320 c-3 -5 1 -10 9 -10 9 0 16 5 16 10 0 6 -4 10 -9 10 -6 0
-13 -4 -16 -10z"/>
<path d="M8118 3729 c-15 -8 -18 -24 -18 -84 l0 -75 129 0 c70 0 156 -3 190
-6 l61 -7 0 40 0 40 -160 -5 -160 -5 0 25 0 25 258 7 c141 4 290 4 330 0 l74
-7 -4 29 -3 29 -340 2 c-219 2 -346 -1 -357 -8z"/>
<path d="M8097 3503 c-9 -9 -9 -71 1 -76 4 -2 26 -2 50 1 41 4 42 5 42 43 l0
39 -43 0 c-24 0 -47 -3 -50 -7z"/>
<path d="M8217 3473 c-2 -21 -2 -41 0 -45 2 -5 24 -8 49 -8 l44 0 0 45 0 45
-44 0 c-43 0 -44 -1 -49 -37z"/>
<path d="M8340 3464 l0 -45 48 3 47 3 3 43 3 42 -50 0 -51 0 0 -46z"/>
<path d="M8477 3504 c-4 -4 -7 -22 -7 -41 0 -33 1 -33 46 -33 l45 0 -3 38 c-3
35 -5 37 -38 40 -20 2 -39 0 -43 -4z"/>
<path d="M8580 3471 c0 -22 3 -42 8 -44 4 -2 29 -2 55 1 l48 4 -5 37 c-3 20
-5 37 -6 39 0 1 -22 2 -50 2 l-50 0 0 -39z"/>
<path d="M8710 3464 l0 -45 53 3 52 3 3 43 3 42 -55 0 -56 0 0 -46z"/>
<path d="M8090 3365 l0 -35 50 0 50 0 0 35 0 35 -50 0 -50 0 0 -35z"/>
<path d="M8212 3368 c3 -32 5 -33 51 -36 l47 -3 0 35 0 36 -51 0 -50 0 3 -32z"/>
<path d="M8340 3365 l0 -35 55 0 c48 0 55 3 55 19 0 42 -10 51 -61 51 l-49 0
0 -35z"/>
<path d="M8590 3362 l0 -38 48 6 c44 5 47 7 50 38 l3 32 -50 0 -51 0 0 -38z"/>
<path d="M8710 3365 l0 -35 55 0 55 0 0 35 0 35 -55 0 -55 0 0 -35z"/>
<path d="M8138 3302 c-46 -3 -48 -5 -48 -33 0 -28 1 -29 49 -29 45 0 49 2 54
28 7 35 2 38 -55 34z"/>
<path d="M8220 3274 c0 -31 2 -32 45 -36 l45 -3 0 38 0 38 -45 -2 c-44 -3 -45
-4 -45 -35z"/>
<path d="M8340 3273 l0 -33 55 0 55 0 0 35 0 35 -55 -2 -55 -2 0 -33z"/>
<path d="M8590 3179 l0 -129 53 0 53 0 -4 35 c-4 34 -5 35 -48 35 -34 0 -42 3
-38 15 4 10 20 15 45 15 36 0 39 2 39 29 0 28 -3 30 -42 33 -59 4 -63 28 -4
28 44 0 46 1 46 30 0 22 -5 30 -17 31 -10 0 -33 2 -50 3 l-33 4 0 -129z"/>
<path d="M8723 3303 c-7 -2 -13 -18 -13 -34 0 -29 1 -29 55 -29 l55 0 0 35 c0
35 0 35 -42 34 -24 0 -49 -3 -55 -6z"/>
<path d="M8340 3183 l0 -33 53 0 53 0 -4 34 c-4 33 -4 33 -53 32 -48 -1 -49
-1 -49 -33z"/>
<path d="M8710 3186 c0 -19 3 -37 8 -39 4 -2 28 -2 55 1 46 4 47 5 47 38 l0
34 -55 0 -55 0 0 -34z"/>
<path d="M8092 3178 c3 -32 4 -33 53 -33 49 0 49 0 51 33 l2 32 -55 0 -54 0 3
-32z"/>
<path d="M8222 3178 c3 -31 5 -33 43 -33 38 0 40 2 43 33 3 32 3 32 -43 32
-46 0 -46 0 -43 -32z"/>
<path d="M8093 3104 c-11 -28 11 -49 56 -52 41 -3 41 -3 41 32 0 36 0 36 -45
36 -33 0 -47 -5 -52 -16z"/>
<path d="M8220 3085 c0 -35 0 -35 45 -35 45 0 45 0 45 35 0 35 0 35 -45 35
-45 0 -45 0 -45 -35z"/>
<path d="M8340 3085 l0 -35 55 0 55 0 0 35 0 35 -55 0 -55 0 0 -35z"/>
<path d="M8718 3090 c4 -30 6 -31 51 -28 42 3 46 5 49 31 3 26 2 27 -51 27
l-54 0 5 -30z"/>
<path d="M7760 3535 c0 -8 7 -15 15 -15 8 0 15 7 15 15 0 8 -7 15 -15 15 -8 0
-15 -7 -15 -15z"/>
<path d="M7770 3340 c0 -87 4 -140 10 -140 6 0 10 53 10 140 0 87 -4 140 -10
140 -6 0 -10 -53 -10 -140z"/>
<path d="M7770 2880 c0 -180 4 -280 10 -280 6 0 10 100 10 280 0 180 -4 280
-10 280 -6 0 -10 -100 -10 -280z"/>
<path d="M2785 3305 c-80 -28 -112 -108 -77 -188 35 -79 117 -109 181 -65 98
67 103 174 10 239 -36 25 -69 29 -114 14z m103 -142 c3 -10 -14 -13 -62 -13
-53 0 -66 3 -66 15 0 13 11 15 62 13 38 -2 63 -8 66 -15z"/>
<path d="M7398 3203 c23 -2 59 -2 80 0 20 2 1 4 -43 4 -44 0 -61 -2 -37 -4z"/>
<path d="M1563 2905 c-57 -24 -90 -101 -73 -166 21 -78 93 -127 119 -81 6 9
11 12 11 7 0 -6 -6 -17 -12 -24 -11 -11 -5 -13 30 -8 52 6 87 28 112 70 72
118 -58 258 -187 202z m90 -110 c33 -29 33 -31 2 -51 -23 -15 -27 -15 -50 0
-29 19 -31 33 -8 58 20 23 22 23 56 -7z"/>
<path d="M2280 2755 c-28 -30 -20 -42 18 -29 16 6 27 17 27 28 0 29 -18 29
-45 1z"/>
<path d="M2320 2671 c0 -7 7 -26 17 -44 9 -17 19 -43 22 -56 6 -22 8 -23 23
-7 16 15 16 19 -3 50 -23 40 -59 74 -59 57z"/>
<path d="M1982 2627 c-14 -16 -42 -82 -42 -97 0 -6 25 -10 60 -10 l60 0 -24
48 c-39 73 -41 75 -54 59z"/>
<path d="M2078 2623 c-25 -6 -22 -23 7 -63 l26 -35 -1 30 c-1 17 0 39 2 49 3
20 -7 26 -34 19z"/>
<path d="M2256 2605 c-9 -14 -21 -36 -26 -50 -9 -25 -9 -25 45 -25 31 0 55 4
55 10 0 17 -40 90 -49 90 -5 0 -16 -11 -25 -25z"/>
<path d="M2147 2613 c-4 -3 -7 -24 -7 -45 0 -34 3 -38 25 -38 19 0 28 8 38 33
8 17 12 38 9 45 -4 13 -54 17 -65 5z"/>
<path d="M2402 2528 c-6 -8 -17 -51 -22 -94 -5 -43 -12 -91 -16 -106 -4 -21
-2 -28 10 -28 8 0 17 8 20 18 10 36 28 188 25 206 -4 17 -6 17 -17 4z"/>
<path d="M2182 2492 c-40 -3 -42 -4 -36 -30 10 -38 19 -42 107 -42 l77 0 0 35
c0 31 -3 35 -27 37 -58 3 -79 3 -121 0z"/>
<path d="M1930 2478 c0 -7 3 -24 7 -36 6 -23 8 -24 87 -17 45 4 83 9 85 11 2
2 1 15 -3 29 -6 24 -9 25 -91 25 -61 0 -85 -3 -85 -12z"/>
<path d="M2844 2434 c-23 -24 -34 -45 -34 -66 0 -39 17 -33 52 18 55 81 43
113 -18 48z"/>
<path d="M2067 2382 c-9 -10 -22 -33 -28 -51 -10 -28 -9 -35 10 -55 12 -13 36
-27 54 -33 l32 -10 0 71 c0 39 -4 77 -8 84 -12 18 -41 15 -60 -6z"/>
<path d="M2170 2386 c0 -21 72 -136 86 -136 28 0 57 39 64 86 5 30 3 47 -4 49
-28 9 -146 10 -146 1z"/>
<path d="M1960 2371 c0 -23 28 -48 39 -35 5 5 12 19 16 32 6 19 3 22 -24 22
-24 0 -31 -4 -31 -19z"/>
<path d="M2160 2268 c0 -31 3 -38 20 -38 25 0 26 21 0 51 l-19 24 -1 -37z"/>
<path d="M2606 2247 c-31 -25 -31 -57 -1 -57 21 0 57 38 53 57 -5 25 -20 25
-52 0z"/>
<path d="M5438 2249 c-49 -33 -88 -67 -88 -76 0 -18 11 -12 115 64 32 24 64
43 70 43 5 0 21 -9 35 -20 27 -21 50 -26 50 -11 0 14 -64 61 -81 61 -8 0 -53
-28 -101 -61z"/>
<path d="M6271 2245 l2 -135 164 0 163 0 0 60 0 60 -130 0 c-123 0 -130 1
-130 20 0 19 7 20 129 20 l130 0 3 28 c2 15 1 39 -1 55 l-3 27 -165 0 -164 0
2 -135z"/>
<path d="M6110 2305 c0 -30 5 -55 10 -55 6 0 10 25 10 55 0 30 -4 55 -10 55
-5 0 -10 -25 -10 -55z"/>
<path d="M6200 2299 c0 -37 4 -58 10 -54 6 3 10 31 10 61 0 30 -4 54 -10 54
-6 0 -10 -27 -10 -61z"/>
<path d="M6030 2295 c0 -15 4 -24 10 -20 6 3 10 12 10 20 0 8 -4 17 -10 20 -6
4 -10 -5 -10 -20z"/>
<path d="M3850 2175 c0 -13 44 -15 340 -15 296 0 340 2 340 15 0 13 -44 15
-340 15 -296 0 -340 -2 -340 -15z"/>
<path d="M3850 2085 c0 -13 41 -15 340 -13 218 2 340 7 340 13 0 6 -122 11
-340 13 -299 2 -340 0 -340 -13z"/>
<path d="M3853 1988 c3 -10 52 -13 202 -13 150 0 199 3 203 13 3 9 -42 12
-203 12 -161 0 -206 -3 -202 -12z"/>
<path d="M4302 1988 c3 -9 38 -14 116 -16 95 -2 112 0 112 13 0 13 -18 15
-116 15 -88 0 -115 -3 -112 -12z"/>
<path d="M3850 1901 c0 -15 42 -21 158 -21 93 0 112 3 112 15 0 13 -22 15
-135 15 -74 0 -135 -4 -135 -9z"/>
<path d="M4260 1901 c0 -5 14 -11 31 -15 40 -8 202 -8 223 0 42 16 4 24 -119
24 -74 0 -135 -4 -135 -9z"/>
<path d="M3850 1810 c0 -6 39 -10 98 -10 53 0 121 -3 150 -6 44 -6 52 -4 52
10 0 14 -18 16 -150 16 -93 0 -150 -4 -150 -10z"/>
<path d="M4260 1811 c0 -10 99 -21 196 -21 59 0 74 3 74 15 0 13 -22 15 -135
15 -74 0 -135 -4 -135 -9z"/>
<path d="M3852 1718 c3 -9 29 -13 91 -13 120 0 118 19 -1 23 -73 2 -93 0 -90
-10z"/>
<path d="M4202 1718 c3 -7 25 -14 51 -16 37 -2 47 0 47 12 0 12 -12 16 -51 16
-36 0 -49 -4 -47 -12z"/>
<path d="M4502 1718 c5 -15 28 -18 29 -3 0 6 -7 12 -17 13 -10 3 -15 -1 -12
-10z"/>
<path d="M3850 1620 c0 -6 42 -11 103 -12 177 -3 207 -2 207 12 0 6 -58 10
-155 10 -97 0 -155 -4 -155 -10z"/>
<path d="M4310 1621 c0 -18 134 -28 199 -15 65 13 27 24 -84 24 -63 0 -115 -4
-115 -9z"/>
<path d="M4051 1331 c-11 -7 -10 -10 5 -13 29 -5 84 3 84 13 0 12 -71 11 -89
0z"/>
<path d="M4486 1331 c-3 -5 1 -11 9 -15 9 -3 15 0 15 9 0 16 -16 20 -24 6z"/>
<path d="M5110 2220 c0 -22 12 -25 41 -10 28 16 23 30 -11 30 -23 0 -30 -4
-30 -20z"/>
<path d="M7445 2131 c-50 -21 -74 -84 -51 -130 17 -33 34 -41 83 -41 39 0 93
45 93 77 0 29 -38 83 -66 93 -29 12 -32 12 -59 1z m70 -51 c37 -41 -14 -107
-64 -81 -20 11 -26 28 -21 61 6 42 54 54 85 20z"/>
<path d="M3480 1375 c0 -8 5 -15 10 -15 6 0 10 7 10 15 0 8 -4 15 -10 15 -5 0
-10 -7 -10 -15z"/>
<path d="M3470 1306 c0 -8 4 -17 9 -20 11 -7 33 18 24 27 -12 12 -33 7 -33 -7z"/>
<path d="M2780 1611 l0 -179 40 -10 40 -10 0 128 c0 70 3 155 6 189 l7 61 -47
0 -46 0 0 -179z"/>
<path d="M6707 1264 c-9 -10 2 -24 19 -24 8 0 14 7 14 15 0 15 -21 21 -33 9z"/>
<path d="M6228 1043 c12 -2 30 -2 40 0 9 3 -1 5 -23 4 -22 0 -30 -2 -17 -4z"/>
<path d="M6298 1043 c6 -2 18 -2 25 0 6 3 1 5 -13 5 -14 0 -19 -2 -12 -5z"/>
</g>
</svg>
